<?xml version="1.0" encoding="UTF-8" standalone="no"?>
<!DOCTYPE svg PUBLIC "-//W3C//DTD SVG 1.1//EN"
 "http://www.w3.org/Graphics/SVG/1.1/DTD/svg11.dtd">
<!-- Generated by graphviz version 2.43.0 (0)
 -->
<!-- Title: %3 Pages: 1 -->
<svg width="642pt" height="238pt"
 viewBox="0.00 0.00 642.00 238.00" xmlns="http://www.w3.org/2000/svg" xmlns:xlink="http://www.w3.org/1999/xlink">
<g id="graph0" class="graph" transform="scale(1 1) rotate(0) translate(4 234)">
<title>%3</title>
<polygon fill="white" stroke="transparent" points="-4,4 -4,-234 638,-234 638,4 -4,4"/>
<!-- Transformer -->
<g id="node1" class="node">
<title>Transformer</title>
<polygon fill="white" stroke="black" points="543,-16 543,-200 634,-200 634,-16 543,-16"/>
<text text-anchor="middle" x="588.5" y="-184.8" font-family="arial" font-size="14.00">Transformer</text>
<polyline fill="none" stroke="black" points="543,-177 634,-177 "/>
<text text-anchor="middle" x="588.5" y="-161.8" font-family="arial" font-size="14.00">6&#45;pin</text>
<polyline fill="none" stroke="black" points="543,-154 634,-154 "/>
<text text-anchor="middle" x="558" y="-138.8" font-family="arial" font-size="14.00">1</text>
<polyline fill="none" stroke="black" points="543,-131 573,-131 "/>
<text text-anchor="middle" x="558" y="-115.8" font-family="arial" font-size="14.00">2</text>
<polyline fill="none" stroke="black" points="543,-108 573,-108 "/>
<text text-anchor="middle" x="558" y="-92.8" font-family="arial" font-size="14.00">3</text>
<polyline fill="none" stroke="black" points="543,-85 573,-85 "/>
<text text-anchor="middle" x="558" y="-69.8" font-family="arial" font-size="14.00">4</text>
<polyline fill="none" stroke="black" points="543,-62 573,-62 "/>
<text text-anchor="middle" x="558" y="-46.8" font-family="arial" font-size="14.00">5</text>
<polyline fill="none" stroke="black" points="543,-39 573,-39 "/>
<text text-anchor="middle" x="558" y="-23.8" font-family="arial" font-size="14.00">6</text>
<polyline fill="none" stroke="black" points="573,-16 573,-154 "/>
<text text-anchor="middle" x="603.5" y="-138.8" font-family="arial" font-size="14.00">5Vac</text>
<polyline fill="none" stroke="black" points="573,-131 634,-131 "/>
<text text-anchor="middle" x="603.5" y="-115.8" font-family="arial" font-size="14.00">GND</text>
<polyline fill="none" stroke="black" points="573,-108 634,-108 "/>
<text text-anchor="middle" x="603.5" y="-92.8" font-family="arial" font-size="14.00">5Vac</text>
<polyline fill="none" stroke="black" points="573,-85 634,-85 "/>
<text text-anchor="middle" x="603.5" y="-69.8" font-family="arial" font-size="14.00">12Vac</text>
<polyline fill="none" stroke="black" points="573,-62 634,-62 "/>
<text text-anchor="middle" x="603.5" y="-46.8" font-family="arial" font-size="14.00">GND</text>
<polyline fill="none" stroke="black" points="573,-39 634,-39 "/>
<text text-anchor="middle" x="603.5" y="-23.8" font-family="arial" font-size="14.00">12Vac</text>
</g>
<!-- PSU J1 -->
<g id="node2" class="node">
<title>PSU J1</title>
<polygon fill="white" stroke="black" points="0,-16 0,-200 78,-200 78,-16 0,-16"/>
<text text-anchor="middle" x="39" y="-184.8" font-family="arial" font-size="14.00">PSU J1</text>
<polyline fill="none" stroke="black" points="0,-177 78,-177 "/>
<text text-anchor="middle" x="39" y="-161.8" font-family="arial" font-size="14.00">6&#45;pin</text>
<polyline fill="none" stroke="black" points="0,-154 78,-154 "/>
<text text-anchor="middle" x="27" y="-138.8" font-family="arial" font-size="14.00">5Vac</text>
<polyline fill="none" stroke="black" points="0,-131 54,-131 "/>
<text text-anchor="middle" x="27" y="-115.8" font-family="arial" font-size="14.00">GND</text>
<polyline fill="none" stroke="black" points="0,-108 54,-108 "/>
<text text-anchor="middle" x="27" y="-92.8" font-family="arial" font-size="14.00">5Vac</text>
<polyline fill="none" stroke="black" points="0,-85 54,-85 "/>
<text text-anchor="middle" x="27" y="-69.8" font-family="arial" font-size="14.00">12Vac</text>
<polyline fill="none" stroke="black" points="0,-62 54,-62 "/>
<text text-anchor="middle" x="27" y="-46.8" font-family="arial" font-size="14.00">GND</text>
<polyline fill="none" stroke="black" points="0,-39 54,-39 "/>
<text text-anchor="middle" x="27" y="-23.8" font-family="arial" font-size="14.00">12Vac</text>
<polyline fill="none" stroke="black" points="54,-16 54,-154 "/>
<text text-anchor="middle" x="66" y="-138.8" font-family="arial" font-size="14.00">1</text>
<polyline fill="none" stroke="black" points="54,-131 78,-131 "/>
<text text-anchor="middle" x="66" y="-115.8" font-family="arial" font-size="14.00">2</text>
<polyline fill="none" stroke="black" points="54,-108 78,-108 "/>
<text text-anchor="middle" x="66" y="-92.8" font-family="arial" font-size="14.00">3</text>
<polyline fill="none" stroke="black" points="54,-85 78,-85 "/>
<text text-anchor="middle" x="66" y="-69.8" font-family="arial" font-size="14.00">4</text>
<polyline fill="none" stroke="black" points="54,-62 78,-62 "/>
<text text-anchor="middle" x="66" y="-46.8" font-family="arial" font-size="14.00">5</text>
<polyline fill="none" stroke="black" points="54,-39 78,-39 "/>
<text text-anchor="middle" x="66" y="-23.8" font-family="arial" font-size="14.00">6</text>
</g>
<!-- W1 -->
<g id="node3" class="node">
<title>W1</title>
<polygon fill="none" stroke="black" points="399,-230 222,-230 222,0 399,0 399,-230"/>
<polygon fill="none" stroke="black" points="222.5,-207 222.5,-230 399.5,-230 399.5,-207 222.5,-207"/>
<text text-anchor="start" x="300" y="-214.8" font-family="arial" font-size="14.00">W1</text>
<polygon fill="none" stroke="black" points="222.5,-184 222.5,-207 399.5,-207 399.5,-184 222.5,-184"/>
<text text-anchor="start" x="303.5" y="-191.8" font-family="arial" font-size="14.00">6x</text>
<text text-anchor="start" x="309" y="-172.8" font-family="arial" font-size="14.00"> </text>
<text text-anchor="start" x="224.5" y="-155.8" font-family="arial" font-size="14.00">PSU J1:1</text>
<text text-anchor="start" x="287" y="-155.8" font-family="arial" font-size="14.00">RD</text>
<text text-anchor="start" x="311.5" y="-155.8" font-family="arial" font-size="14.00">Transformer:1</text>
<polygon fill="#ff0000" stroke="transparent" points="222.5,-144 222.5,-150 399.5,-150 399.5,-144 222.5,-144"/>
<polyline fill="none" stroke="black" stroke-width="2" points="223.5,-145 398.5,-145 "/>
<polyline fill="none" stroke="black" stroke-width="2" points="398.5,-149 223.5,-149 "/>
<text text-anchor="start" x="224.5" y="-130.8" font-family="arial" font-size="14.00">PSU J1:2</text>
<text text-anchor="start" x="287.5" y="-130.8" font-family="arial" font-size="14.00">BK</text>
<text text-anchor="start" x="311.5" y="-130.8" font-family="arial" font-size="14.00">Transformer:2</text>
<polygon fill="#000000" stroke="transparent" stroke-width="2" points="222.5,-119 222.5,-125 399.5,-125 399.5,-119 222.5,-119"/>
<polyline fill="none" stroke="black" stroke-width="2" points="223.5,-120 398.5,-120 "/>
<polyline fill="none" stroke="black" stroke-width="2" points="398.5,-124 223.5,-124 "/>
<text text-anchor="start" x="224.5" y="-105.8" font-family="arial" font-size="14.00">PSU J1:3</text>
<text text-anchor="start" x="287" y="-105.8" font-family="arial" font-size="14.00">RD</text>
<text text-anchor="start" x="311.5" y="-105.8" font-family="arial" font-size="14.00">Transformer:3</text>
<polygon fill="#ff0000" stroke="transparent" stroke-width="2" points="222.5,-94 222.5,-100 399.5,-100 399.5,-94 222.5,-94"/>
<polyline fill="none" stroke="black" stroke-width="2" points="223.5,-95 398.5,-95 "/>
<polyline fill="none" stroke="black" stroke-width="2" points="398.5,-99 223.5,-99 "/>
<text text-anchor="start" x="224.5" y="-80.8" font-family="arial" font-size="14.00">PSU J1:4</text>
<text text-anchor="start" x="287.5" y="-80.8" font-family="arial" font-size="14.00">BN</text>
<text text-anchor="start" x="311.5" y="-80.8" font-family="arial" font-size="14.00">Transformer:4</text>
<polygon fill="#666600" stroke="transparent" stroke-width="2" points="222.5,-69 222.5,-75 399.5,-75 399.5,-69 222.5,-69"/>
<polyline fill="none" stroke="black" stroke-width="2" points="223.5,-70 398.5,-70 "/>
<polyline fill="none" stroke="black" stroke-width="2" points="398.5,-74 223.5,-74 "/>
<text text-anchor="start" x="224.5" y="-55.8" font-family="arial" font-size="14.00">PSU J1:5</text>
<text text-anchor="start" x="286.5" y="-55.8" font-family="arial" font-size="14.00">GY</text>
<text text-anchor="start" x="311.5" y="-55.8" font-family="arial" font-size="14.00">Transformer:5</text>
<polygon fill="#999999" stroke="transparent" stroke-width="2" points="222.5,-44 222.5,-50 399.5,-50 399.5,-44 222.5,-44"/>
<polyline fill="none" stroke="black" stroke-width="2" points="223.5,-45 398.5,-45 "/>
<polyline fill="none" stroke="black" stroke-width="2" points="398.5,-49 223.5,-49 "/>
<text text-anchor="start" x="224.5" y="-30.8" font-family="arial" font-size="14.00">PSU J1:6</text>
<text text-anchor="start" x="287.5" y="-30.8" font-family="arial" font-size="14.00">BN</text>
<text text-anchor="start" x="311.5" y="-30.8" font-family="arial" font-size="14.00">Transformer:6</text>
<polygon fill="#666600" stroke="transparent" stroke-width="2" points="222.5,-19 222.5,-25 399.5,-25 399.5,-19 222.5,-19"/>
<polyline fill="none" stroke="black" stroke-width="2" points="223.5,-20 398.5,-20 "/>
<polyline fill="none" stroke="black" stroke-width="2" points="398.5,-24 223.5,-24 "/>
<text text-anchor="start" x="251.5" y="-5.8" font-family="arial" font-size="14.00"> </text>
</g>
<!-- PSU J1&#45;&#45;W1 -->
<g id="edge1" class="edge">
<title>PSU J1:e&#45;&#45;W1:w</title>
<path fill="none" stroke="#000000" stroke-width="2" d="M78,-141C142.51,-141.06 158.46,-145.06 222,-145"/>
<path fill="none" stroke="#ff0000" stroke-width="2" d="M78,-143C142.02,-143 157.98,-147 222,-147"/>
<path fill="none" stroke="#000000" stroke-width="2" d="M78,-145C141.54,-144.94 157.49,-148.94 222,-149"/>
</g>
<!-- PSU J1&#45;&#45;W1 -->
<g id="edge3" class="edge">
<title>PSU J1:e&#45;&#45;W1:w</title>
<path fill="none" stroke="#000000" stroke-width="2" d="M78,-118C142.25,-118.02 158.24,-120.02 222,-120"/>
<path fill="none" stroke="#000000" stroke-width="2" d="M78,-120C142.01,-120 157.99,-122 222,-122"/>
<path fill="none" stroke="#000000" stroke-width="2" d="M78,-122C141.76,-121.98 157.75,-123.98 222,-124"/>
</g>
<!-- PSU J1&#45;&#45;W1 -->
<g id="edge5" class="edge">
<title>PSU J1:e&#45;&#45;W1:w</title>
<path fill="none" stroke="#000000" stroke-width="2" d="M78,-94C142.13,-94 158.12,-95 222,-95"/>
<path fill="none" stroke="#ff0000" stroke-width="2" d="M78,-96C142,-96 158,-97 222,-97"/>
<path fill="none" stroke="#000000" stroke-width="2" d="M78,-98C141.88,-98 157.87,-99 222,-99"/>
</g>
<!-- PSU J1&#45;&#45;W1 -->
<g id="edge7" class="edge">
<title>PSU J1:e&#45;&#45;W1:w</title>
<path fill="none" stroke="#000000" stroke-width="2" d="M78,-71C141.88,-71 157.87,-70 222,-70"/>
<path fill="none" stroke="#666600" stroke-width="2" d="M78,-73C142,-73 158,-72 222,-72"/>
<path fill="none" stroke="#000000" stroke-width="2" d="M78,-75C142.13,-75 158.12,-74 222,-74"/>
</g>
<!-- PSU J1&#45;&#45;W1 -->
<g id="edge9" class="edge">
<title>PSU J1:e&#45;&#45;W1:w</title>
<path fill="none" stroke="#000000" stroke-width="2" d="M78,-48C141.64,-48.03 157.62,-45.03 222,-45"/>
<path fill="none" stroke="#999999" stroke-width="2" d="M78,-50C142.01,-50 157.99,-47 222,-47"/>
<path fill="none" stroke="#000000" stroke-width="2" d="M78,-52C142.38,-51.97 158.36,-48.97 222,-49"/>
</g>
<!-- PSU J1&#45;&#45;W1 -->
<g id="edge11" class="edge">
<title>PSU J1:e&#45;&#45;W1:w</title>
<path fill="none" stroke="#000000" stroke-width="2" d="M78,-25C141.44,-25.09 157.36,-20.09 222,-20"/>
<path fill="none" stroke="#666600" stroke-width="2" d="M78,-27C142.04,-27 157.96,-22 222,-22"/>
<path fill="none" stroke="#000000" stroke-width="2" d="M78,-29C142.64,-28.91 158.56,-23.91 222,-24"/>
</g>
<!-- W1&#45;&#45;Transformer -->
<g id="edge2" class="edge">
<title>W1:e&#45;&#45;Transformer:w</title>
<path fill="none" stroke="#000000" stroke-width="2" d="M399,-145C462.54,-145.06 478.49,-141.06 543,-141"/>
<path fill="none" stroke="#ff0000" stroke-width="2" d="M399,-147C463.02,-147 478.98,-143 543,-143"/>
<path fill="none" stroke="#000000" stroke-width="2" d="M399,-149C463.51,-148.94 479.46,-144.94 543,-145"/>
</g>
<!-- W1&#45;&#45;Transformer -->
<g id="edge4" class="edge">
<title>W1:e&#45;&#45;Transformer:w</title>
<path fill="none" stroke="#000000" stroke-width="2" d="M399,-120C462.76,-120.02 478.75,-118.02 543,-118"/>
<path fill="none" stroke="#000000" stroke-width="2" d="M399,-122C463.01,-122 478.99,-120 543,-120"/>
<path fill="none" stroke="#000000" stroke-width="2" d="M399,-124C463.25,-123.98 479.24,-121.98 543,-122"/>
</g>
<!-- W1&#45;&#45;Transformer -->
<g id="edge6" class="edge">
<title>W1:e&#45;&#45;Transformer:w</title>
<path fill="none" stroke="#000000" stroke-width="2" d="M399,-95C462.88,-95 478.87,-94 543,-94"/>
<path fill="none" stroke="#ff0000" stroke-width="2" d="M399,-97C463,-97 479,-96 543,-96"/>
<path fill="none" stroke="#000000" stroke-width="2" d="M399,-99C463.13,-99 479.12,-98 543,-98"/>
</g>
<!-- W1&#45;&#45;Transformer -->
<g id="edge8" class="edge">
<title>W1:e&#45;&#45;Transformer:w</title>
<path fill="none" stroke="#000000" stroke-width="2" d="M399,-70C463.13,-70 479.12,-71 543,-71"/>
<path fill="none" stroke="#666600" stroke-width="2" d="M399,-72C463,-72 479,-73 543,-73"/>
<path fill="none" stroke="#000000" stroke-width="2" d="M399,-74C462.88,-74 478.87,-75 543,-75"/>
</g>
<!-- W1&#45;&#45;Transformer -->
<g id="edge10" class="edge">
<title>W1:e&#45;&#45;Transformer:w</title>
<path fill="none" stroke="#000000" stroke-width="2" d="M399,-45C463.38,-45.03 479.36,-48.03 543,-48"/>
<path fill="none" stroke="#999999" stroke-width="2" d="M399,-47C463.01,-47 478.99,-50 543,-50"/>
<path fill="none" stroke="#000000" stroke-width="2" d="M399,-49C462.64,-48.97 478.62,-51.97 543,-52"/>
</g>
<!-- W1&#45;&#45;Transformer -->
<g id="edge12" class="edge">
<title>W1:e&#45;&#45;Transformer:w</title>
<path fill="none" stroke="#000000" stroke-width="2" d="M399,-20C463.64,-20.09 479.56,-25.09 543,-25"/>
<path fill="none" stroke="#666600" stroke-width="2" d="M399,-22C463.04,-22 478.96,-27 543,-27"/>
<path fill="none" stroke="#000000" stroke-width="2" d="M399,-24C462.44,-23.91 478.36,-28.91 543,-29"/>
</g>
</g>
</svg>
