<?xml version="1.0" encoding="UTF-8" standalone="no"?>
<!DOCTYPE svg PUBLIC "-//W3C//DTD SVG 1.1//EN"
 "http://www.w3.org/Graphics/SVG/1.1/DTD/svg11.dtd">
<!-- Generated by graphviz version 2.43.0 (0)
 -->
<!-- Title: %3 Pages: 1 -->
<svg width="811pt" height="702pt"
 viewBox="0.00 0.00 811.00 701.50" xmlns="http://www.w3.org/2000/svg" xmlns:xlink="http://www.w3.org/1999/xlink">
<g id="graph0" class="graph" transform="scale(1 1) rotate(0) translate(4 697.5)">
<title>%3</title>
<polygon fill="white" stroke="transparent" points="-4,4 -4,-697.5 807,-697.5 807,4 -4,4"/>
<!-- Power Block Mains -->
<g id="node1" class="node">
<title>Power Block Mains</title>
<polygon fill="white" stroke="black" points="671,-107 671,-199 803,-199 803,-107 671,-107"/>
<text text-anchor="middle" x="737" y="-183.8" font-family="arial" font-size="14.00">Power Block Mains</text>
<polyline fill="none" stroke="black" points="671,-176 803,-176 "/>
<text text-anchor="middle" x="737" y="-160.8" font-family="arial" font-size="14.00">2&#45;pin</text>
<polyline fill="none" stroke="black" points="671,-153 803,-153 "/>
<text text-anchor="middle" x="695" y="-137.8" font-family="arial" font-size="14.00">1</text>
<polyline fill="none" stroke="black" points="671,-130 719,-130 "/>
<text text-anchor="middle" x="695" y="-114.8" font-family="arial" font-size="14.00">2</text>
<polyline fill="none" stroke="black" points="719,-107 719,-153 "/>
<text text-anchor="middle" x="761" y="-137.8" font-family="arial" font-size="14.00">Hot</text>
<polyline fill="none" stroke="black" points="719,-130 803,-130 "/>
<text text-anchor="middle" x="761" y="-114.8" font-family="arial" font-size="14.00">Neutral</text>
</g>
<!-- Power Block J2 -->
<g id="node2" class="node">
<title>Power Block J2</title>
<polygon fill="white" stroke="black" points="682,-285.5 682,-538.5 792,-538.5 792,-285.5 682,-285.5"/>
<text text-anchor="middle" x="737" y="-523.3" font-family="arial" font-size="14.00">Power Block J2</text>
<polyline fill="none" stroke="black" points="682,-515.5 792,-515.5 "/>
<text text-anchor="middle" x="737" y="-500.3" font-family="arial" font-size="14.00">9&#45;pin</text>
<polyline fill="none" stroke="black" points="682,-492.5 792,-492.5 "/>
<text text-anchor="middle" x="704" y="-477.3" font-family="arial" font-size="14.00">1</text>
<polyline fill="none" stroke="black" points="682,-469.5 726,-469.5 "/>
<text text-anchor="middle" x="704" y="-454.3" font-family="arial" font-size="14.00">2</text>
<polyline fill="none" stroke="black" points="682,-446.5 726,-446.5 "/>
<text text-anchor="middle" x="704" y="-431.3" font-family="arial" font-size="14.00">3</text>
<polyline fill="none" stroke="black" points="682,-423.5 726,-423.5 "/>
<text text-anchor="middle" x="704" y="-408.3" font-family="arial" font-size="14.00">4</text>
<polyline fill="none" stroke="black" points="682,-400.5 726,-400.5 "/>
<text text-anchor="middle" x="704" y="-385.3" font-family="arial" font-size="14.00">5</text>
<polyline fill="none" stroke="black" points="682,-377.5 726,-377.5 "/>
<text text-anchor="middle" x="704" y="-362.3" font-family="arial" font-size="14.00">6</text>
<polyline fill="none" stroke="black" points="682,-354.5 726,-354.5 "/>
<text text-anchor="middle" x="704" y="-339.3" font-family="arial" font-size="14.00">7</text>
<polyline fill="none" stroke="black" points="682,-331.5 726,-331.5 "/>
<text text-anchor="middle" x="704" y="-316.3" font-family="arial" font-size="14.00">8</text>
<polyline fill="none" stroke="black" points="682,-308.5 726,-308.5 "/>
<text text-anchor="middle" x="704" y="-293.3" font-family="arial" font-size="14.00">9</text>
<polyline fill="none" stroke="black" points="726,-285.5 726,-492.5 "/>
<text text-anchor="middle" x="759" y="-477.3" font-family="arial" font-size="14.00">P2&#45;1</text>
<polyline fill="none" stroke="black" points="726,-469.5 792,-469.5 "/>
<text text-anchor="middle" x="759" y="-454.3" font-family="arial" font-size="14.00">P2&#45;2</text>
<polyline fill="none" stroke="black" points="726,-446.5 792,-446.5 "/>
<text text-anchor="middle" x="759" y="-431.3" font-family="arial" font-size="14.00">P2&#45;3</text>
<polyline fill="none" stroke="black" points="726,-423.5 792,-423.5 "/>
<text text-anchor="middle" x="759" y="-408.3" font-family="arial" font-size="14.00">P2&#45;4</text>
<polyline fill="none" stroke="black" points="726,-400.5 792,-400.5 "/>
<text text-anchor="middle" x="759" y="-385.3" font-family="arial" font-size="14.00">P2&#45;5</text>
<polyline fill="none" stroke="black" points="726,-377.5 792,-377.5 "/>
<text text-anchor="middle" x="759" y="-362.3" font-family="arial" font-size="14.00">P2&#45;6</text>
<polyline fill="none" stroke="black" points="726,-354.5 792,-354.5 "/>
<text text-anchor="middle" x="759" y="-339.3" font-family="arial" font-size="14.00">P2&#45;7</text>
<polyline fill="none" stroke="black" points="726,-331.5 792,-331.5 "/>
<text text-anchor="middle" x="759" y="-316.3" font-family="arial" font-size="14.00">P2&#45;8</text>
<polyline fill="none" stroke="black" points="726,-308.5 792,-308.5 "/>
<text text-anchor="middle" x="759" y="-293.3" font-family="arial" font-size="14.00">P2&#45;9</text>
</g>
<!-- Transformer -->
<g id="node3" class="node">
<title>Transformer</title>
<polygon fill="white" stroke="black" points="12,-502.5 12,-663.5 103,-663.5 103,-502.5 12,-502.5"/>
<text text-anchor="middle" x="57.5" y="-648.3" font-family="arial" font-size="14.00">Transformer</text>
<polyline fill="none" stroke="black" points="12,-640.5 103,-640.5 "/>
<text text-anchor="middle" x="57.5" y="-625.3" font-family="arial" font-size="14.00">5&#45;pin</text>
<polyline fill="none" stroke="black" points="12,-617.5 103,-617.5 "/>
<text text-anchor="middle" x="44" y="-602.3" font-family="arial" font-size="14.00">GND</text>
<polyline fill="none" stroke="black" points="12,-594.5 76,-594.5 "/>
<text text-anchor="middle" x="44" y="-579.3" font-family="arial" font-size="14.00">100Vac</text>
<polyline fill="none" stroke="black" points="12,-571.5 76,-571.5 "/>
<text text-anchor="middle" x="44" y="-556.3" font-family="arial" font-size="14.00">120Vac</text>
<polyline fill="none" stroke="black" points="12,-548.5 76,-548.5 "/>
<text text-anchor="middle" x="44" y="-533.3" font-family="arial" font-size="14.00">220Vac</text>
<polyline fill="none" stroke="black" points="12,-525.5 76,-525.5 "/>
<text text-anchor="middle" x="44" y="-510.3" font-family="arial" font-size="14.00">240Vac</text>
<polyline fill="none" stroke="black" points="76,-502.5 76,-617.5 "/>
<text text-anchor="middle" x="89.5" y="-602.3" font-family="arial" font-size="14.00">1</text>
<polyline fill="none" stroke="black" points="76,-594.5 103,-594.5 "/>
<text text-anchor="middle" x="89.5" y="-579.3" font-family="arial" font-size="14.00">2</text>
<polyline fill="none" stroke="black" points="76,-571.5 103,-571.5 "/>
<text text-anchor="middle" x="89.5" y="-556.3" font-family="arial" font-size="14.00">3</text>
<polyline fill="none" stroke="black" points="76,-548.5 103,-548.5 "/>
<text text-anchor="middle" x="89.5" y="-533.3" font-family="arial" font-size="14.00">4</text>
<polyline fill="none" stroke="black" points="76,-525.5 103,-525.5 "/>
<text text-anchor="middle" x="89.5" y="-510.3" font-family="arial" font-size="14.00">5</text>
</g>
<!-- W1 -->
<g id="node6" class="node">
<title>W1</title>
<polygon fill="none" stroke="black" points="506.5,-693.5 279.5,-693.5 279.5,-488.5 506.5,-488.5 506.5,-693.5"/>
<polygon fill="none" stroke="black" points="280,-670 280,-693 507,-693 507,-670 280,-670"/>
<text text-anchor="start" x="382.5" y="-677.8" font-family="arial" font-size="14.00">W1</text>
<polygon fill="none" stroke="black" points="280,-647 280,-670 507,-670 507,-647 280,-647"/>
<text text-anchor="start" x="386" y="-654.8" font-family="arial" font-size="14.00">5x</text>
<text text-anchor="start" x="391.5" y="-635.8" font-family="arial" font-size="14.00"> </text>
<text text-anchor="start" x="282" y="-618.8" font-family="arial" font-size="14.00">Transformer:1</text>
<text text-anchor="start" x="372" y="-618.8" font-family="arial" font-size="14.00">WH</text>
<text text-anchor="start" x="400" y="-618.8" font-family="arial" font-size="14.00">Power Block J2:1</text>
<polygon fill="#ffffff" stroke="transparent" points="280,-607 280,-613 507,-613 507,-607 280,-607"/>
<polyline fill="none" stroke="black" stroke-width="2" points="281,-608 506,-608 "/>
<polyline fill="none" stroke="black" stroke-width="2" points="506,-612 281,-612 "/>
<text text-anchor="start" x="282" y="-593.8" font-family="arial" font-size="14.00">Transformer:2</text>
<text text-anchor="start" x="374.5" y="-593.8" font-family="arial" font-size="14.00">BU</text>
<text text-anchor="start" x="400" y="-593.8" font-family="arial" font-size="14.00">Power Block J2:3</text>
<polygon fill="#0066ff" stroke="transparent" stroke-width="2" points="280,-582 280,-588 507,-588 507,-582 280,-582"/>
<polyline fill="none" stroke="black" stroke-width="2" points="281,-583 506,-583 "/>
<polyline fill="none" stroke="black" stroke-width="2" points="506,-587 281,-587 "/>
<text text-anchor="start" x="282" y="-568.8" font-family="arial" font-size="14.00">Transformer:3</text>
<text text-anchor="start" x="373" y="-568.8" font-family="arial" font-size="14.00">GN</text>
<text text-anchor="start" x="400" y="-568.8" font-family="arial" font-size="14.00">Power Block J2:4</text>
<polygon fill="#00ff00" stroke="transparent" stroke-width="2" points="280,-557 280,-563 507,-563 507,-557 280,-557"/>
<polyline fill="none" stroke="black" stroke-width="2" points="281,-558 506,-558 "/>
<polyline fill="none" stroke="black" stroke-width="2" points="506,-562 281,-562 "/>
<text text-anchor="start" x="282" y="-543.8" font-family="arial" font-size="14.00">Transformer:4</text>
<text text-anchor="start" x="374.5" y="-543.8" font-family="arial" font-size="14.00">YE</text>
<text text-anchor="start" x="400" y="-543.8" font-family="arial" font-size="14.00">Power Block J2:6</text>
<polygon fill="#ffff00" stroke="transparent" stroke-width="2" points="280,-532 280,-538 507,-538 507,-532 280,-532"/>
<polyline fill="none" stroke="black" stroke-width="2" points="281,-533 506,-533 "/>
<polyline fill="none" stroke="black" stroke-width="2" points="506,-537 281,-537 "/>
<text text-anchor="start" x="282" y="-518.8" font-family="arial" font-size="14.00">Transformer:5</text>
<text text-anchor="start" x="372.5" y="-518.8" font-family="arial" font-size="14.00">OG</text>
<text text-anchor="start" x="400" y="-518.8" font-family="arial" font-size="14.00">Power Block J2:7</text>
<polygon fill="#ff8000" stroke="transparent" stroke-width="2" points="280,-507 280,-513 507,-513 507,-507 280,-507"/>
<polyline fill="none" stroke="black" stroke-width="2" points="281,-508 506,-508 "/>
<polyline fill="none" stroke="black" stroke-width="2" points="506,-512 281,-512 "/>
<text text-anchor="start" x="323" y="-493.8" font-family="arial" font-size="14.00"> </text>
</g>
<!-- Transformer&#45;&#45;W1 -->
<g id="edge1" class="edge">
<title>Transformer:e&#45;&#45;W1:w</title>
<path fill="none" stroke="#000000" stroke-width="2" d="M104.5,-604C182.48,-604.04 201.83,-608.04 279,-608"/>
<path fill="none" stroke="#ffffff" stroke-width="2" d="M104.5,-606C182.08,-606 201.42,-610 279,-610"/>
<path fill="none" stroke="#000000" stroke-width="2" d="M104.5,-608C181.67,-607.96 201.02,-611.96 279,-612"/>
</g>
<!-- Transformer&#45;&#45;W1 -->
<g id="edge3" class="edge">
<title>Transformer:e&#45;&#45;W1:w</title>
<path fill="none" stroke="#000000" stroke-width="2" d="M104.5,-581C182.27,-581.01 201.64,-583.01 279,-583"/>
<path fill="none" stroke="#0066ff" stroke-width="2" d="M104.5,-583C182.06,-583 201.44,-585 279,-585"/>
<path fill="none" stroke="#000000" stroke-width="2" d="M104.5,-585C181.86,-584.99 201.23,-586.99 279,-587"/>
</g>
<!-- Transformer&#45;&#45;W1 -->
<g id="edge5" class="edge">
<title>Transformer:e&#45;&#45;W1:w</title>
<path fill="none" stroke="#000000" stroke-width="2" d="M104.5,-558C182.06,-558 201.44,-558 279,-558"/>
<path fill="none" stroke="#00ff00" stroke-width="2" d="M104.5,-560C182.06,-560 201.44,-560 279,-560"/>
<path fill="none" stroke="#000000" stroke-width="2" d="M104.5,-562C182.06,-562 201.44,-562 279,-562"/>
</g>
<!-- Transformer&#45;&#45;W1 -->
<g id="edge7" class="edge">
<title>Transformer:e&#45;&#45;W1:w</title>
<path fill="none" stroke="#000000" stroke-width="2" d="M104.5,-535C181.86,-535.01 201.23,-533.01 279,-533"/>
<path fill="none" stroke="#ffff00" stroke-width="2" d="M104.5,-537C182.06,-537 201.44,-535 279,-535"/>
<path fill="none" stroke="#000000" stroke-width="2" d="M104.5,-539C182.27,-538.99 201.64,-536.99 279,-537"/>
</g>
<!-- Transformer&#45;&#45;W1 -->
<g id="edge9" class="edge">
<title>Transformer:e&#45;&#45;W1:w</title>
<path fill="none" stroke="#000000" stroke-width="2" d="M104.5,-512C181.67,-512.04 201.02,-508.04 279,-508"/>
<path fill="none" stroke="#ff8000" stroke-width="2" d="M104.5,-514C182.08,-514 201.42,-510 279,-510"/>
<path fill="none" stroke="#000000" stroke-width="2" d="M104.5,-516C182.48,-515.96 201.83,-511.96 279,-512"/>
</g>
<!-- Power Switch -->
<g id="node4" class="node">
<title>Power Switch</title>
<polygon fill="white" stroke="black" points="8.5,-12 8.5,-104 106.5,-104 106.5,-12 8.5,-12"/>
<text text-anchor="middle" x="57.5" y="-88.8" font-family="arial" font-size="14.00">Power Switch</text>
<polyline fill="none" stroke="black" points="8.5,-81 106.5,-81 "/>
<text text-anchor="middle" x="57.5" y="-65.8" font-family="arial" font-size="14.00">2&#45;pin</text>
<polyline fill="none" stroke="black" points="8.5,-58 106.5,-58 "/>
<text text-anchor="middle" x="33.5" y="-42.8" font-family="arial" font-size="14.00">A</text>
<polyline fill="none" stroke="black" points="8.5,-35 58.5,-35 "/>
<text text-anchor="middle" x="33.5" y="-19.8" font-family="arial" font-size="14.00">B</text>
<polyline fill="none" stroke="black" points="58.5,-12 58.5,-58 "/>
<text text-anchor="middle" x="82.5" y="-42.8" font-family="arial" font-size="14.00">1</text>
<polyline fill="none" stroke="black" points="58.5,-35 106.5,-35 "/>
<text text-anchor="middle" x="82.5" y="-19.8" font-family="arial" font-size="14.00">2</text>
</g>
<!-- W4 -->
<g id="node9" class="node">
<title>W4</title>
<polygon fill="none" stroke="black" points="520,-130 266,-130 266,0 520,0 520,-130"/>
<polygon fill="none" stroke="black" points="266,-107 266,-130 520,-130 520,-107 266,-107"/>
<text text-anchor="start" x="382" y="-114.8" font-family="arial" font-size="14.00">W4</text>
<polygon fill="none" stroke="black" points="266,-84 266,-107 520,-107 520,-84 266,-84"/>
<text text-anchor="start" x="385.5" y="-91.8" font-family="arial" font-size="14.00">2x</text>
<text text-anchor="start" x="391" y="-72.8" font-family="arial" font-size="14.00"> </text>
<text text-anchor="start" x="268" y="-55.8" font-family="arial" font-size="14.00">Power Switch:1</text>
<text text-anchor="start" x="366" y="-55.8" font-family="arial" font-size="14.00">GY</text>
<text text-anchor="start" x="402" y="-55.8" font-family="arial" font-size="14.00">Power Block J2:9</text>
<polygon fill="#999999" stroke="transparent" points="266,-44 266,-50 520,-50 520,-44 266,-44"/>
<polyline fill="none" stroke="black" stroke-width="2" points="267,-45 519,-45 "/>
<polyline fill="none" stroke="black" stroke-width="2" points="519,-49 267,-49 "/>
<text text-anchor="start" x="268" y="-30.8" font-family="arial" font-size="14.00">Power Switch:2</text>
<text text-anchor="start" x="367" y="-30.8" font-family="arial" font-size="14.00">BN</text>
<text text-anchor="start" x="391" y="-30.8" font-family="arial" font-size="14.00">Power Block Mains:2</text>
<polygon fill="#666600" stroke="transparent" stroke-width="2" points="266,-19 266,-25 520,-25 520,-19 266,-19"/>
<polyline fill="none" stroke="black" stroke-width="2" points="267,-20 519,-20 "/>
<polyline fill="none" stroke="black" stroke-width="2" points="519,-24 267,-24 "/>
<text text-anchor="start" x="313" y="-5.8" font-family="arial" font-size="14.00"> </text>
</g>
<!-- Power Switch&#45;&#45;W4 -->
<g id="edge21" class="edge">
<title>Power Switch:e&#45;&#45;W4:w</title>
<path fill="none" stroke="#000000" stroke-width="2" d="M107.5,-44C177.62,-44 195.11,-45 265,-45"/>
<path fill="none" stroke="#999999" stroke-width="2" d="M107.5,-46C177.5,-46 195,-47 265,-47"/>
<path fill="none" stroke="#000000" stroke-width="2" d="M107.5,-48C177.39,-48 194.88,-49 265,-49"/>
</g>
<!-- Power Switch&#45;&#45;W4 -->
<g id="edge23" class="edge">
<title>Power Switch:e&#45;&#45;W4:w</title>
<path fill="none" stroke="#000000" stroke-width="2" d="M107.5,-21C177.39,-21 194.88,-20 265,-20"/>
<path fill="none" stroke="#666600" stroke-width="2" d="M107.5,-23C177.5,-23 195,-22 265,-22"/>
<path fill="none" stroke="#000000" stroke-width="2" d="M107.5,-25C177.62,-25 195.11,-24 265,-24"/>
</g>
<!-- Voltage Selector -->
<g id="node5" class="node">
<title>Voltage Selector</title>
<polygon fill="white" stroke="black" points="0,-273.5 0,-434.5 115,-434.5 115,-273.5 0,-273.5"/>
<text text-anchor="middle" x="57.5" y="-419.3" font-family="arial" font-size="14.00">Voltage Selector</text>
<polyline fill="none" stroke="black" points="0,-411.5 115,-411.5 "/>
<text text-anchor="middle" x="57.5" y="-396.3" font-family="arial" font-size="14.00">5&#45;pin</text>
<polyline fill="none" stroke="black" points="0,-388.5 115,-388.5 "/>
<text text-anchor="middle" x="38" y="-373.3" font-family="arial" font-size="14.00">100Vac</text>
<polyline fill="none" stroke="black" points="0,-365.5 76,-365.5 "/>
<text text-anchor="middle" x="38" y="-350.3" font-family="arial" font-size="14.00">120Vac</text>
<polyline fill="none" stroke="black" points="0,-342.5 76,-342.5 "/>
<text text-anchor="middle" x="38" y="-327.3" font-family="arial" font-size="14.00">220Vac</text>
<polyline fill="none" stroke="black" points="0,-319.5 76,-319.5 "/>
<text text-anchor="middle" x="38" y="-304.3" font-family="arial" font-size="14.00">240Vac</text>
<polyline fill="none" stroke="black" points="0,-296.5 76,-296.5 "/>
<text text-anchor="middle" x="38" y="-281.3" font-family="arial" font-size="14.00">Input</text>
<polyline fill="none" stroke="black" points="76,-273.5 76,-388.5 "/>
<text text-anchor="middle" x="95.5" y="-373.3" font-family="arial" font-size="14.00">1</text>
<polyline fill="none" stroke="black" points="76,-365.5 115,-365.5 "/>
<text text-anchor="middle" x="95.5" y="-350.3" font-family="arial" font-size="14.00">2</text>
<polyline fill="none" stroke="black" points="76,-342.5 115,-342.5 "/>
<text text-anchor="middle" x="95.5" y="-327.3" font-family="arial" font-size="14.00">3</text>
<polyline fill="none" stroke="black" points="76,-319.5 115,-319.5 "/>
<text text-anchor="middle" x="95.5" y="-304.3" font-family="arial" font-size="14.00">4</text>
<polyline fill="none" stroke="black" points="76,-296.5 115,-296.5 "/>
<text text-anchor="middle" x="95.5" y="-281.3" font-family="arial" font-size="14.00">5</text>
</g>
<!-- W2 -->
<g id="node7" class="node">
<title>W2</title>
<polygon fill="none" stroke="black" points="518,-464 268,-464 268,-284 518,-284 518,-464"/>
<polygon fill="none" stroke="black" points="268,-441 268,-464 518,-464 518,-441 268,-441"/>
<text text-anchor="start" x="382" y="-448.8" font-family="arial" font-size="14.00">W2</text>
<polygon fill="none" stroke="black" points="268,-418 268,-441 518,-441 518,-418 268,-418"/>
<text text-anchor="start" x="385.5" y="-425.8" font-family="arial" font-size="14.00">4x</text>
<text text-anchor="start" x="391" y="-406.8" font-family="arial" font-size="14.00"> </text>
<text text-anchor="start" x="270" y="-389.8" font-family="arial" font-size="14.00">Voltage Selector:1</text>
<text text-anchor="start" x="386" y="-389.8" font-family="arial" font-size="14.00">BU</text>
<text text-anchor="start" x="411" y="-389.8" font-family="arial" font-size="14.00">Power Block J2:3</text>
<polygon fill="#0066ff" stroke="transparent" points="268,-378 268,-384 518,-384 518,-378 268,-378"/>
<polyline fill="none" stroke="black" stroke-width="2" points="269,-379 517,-379 "/>
<polyline fill="none" stroke="black" stroke-width="2" points="517,-383 269,-383 "/>
<text text-anchor="start" x="270" y="-364.8" font-family="arial" font-size="14.00">Voltage Selector:2</text>
<text text-anchor="start" x="384.5" y="-364.8" font-family="arial" font-size="14.00">GN</text>
<text text-anchor="start" x="411" y="-364.8" font-family="arial" font-size="14.00">Power Block J2:4</text>
<polygon fill="#00ff00" stroke="transparent" stroke-width="2" points="268,-353 268,-359 518,-359 518,-353 268,-353"/>
<polyline fill="none" stroke="black" stroke-width="2" points="269,-354 517,-354 "/>
<polyline fill="none" stroke="black" stroke-width="2" points="517,-358 269,-358 "/>
<text text-anchor="start" x="270" y="-339.8" font-family="arial" font-size="14.00">Voltage Selector:3</text>
<text text-anchor="start" x="386" y="-339.8" font-family="arial" font-size="14.00">YE</text>
<text text-anchor="start" x="411" y="-339.8" font-family="arial" font-size="14.00">Power Block J2:6</text>
<polygon fill="#ffff00" stroke="transparent" stroke-width="2" points="268,-328 268,-334 518,-334 518,-328 268,-328"/>
<polyline fill="none" stroke="black" stroke-width="2" points="269,-329 517,-329 "/>
<polyline fill="none" stroke="black" stroke-width="2" points="517,-333 269,-333 "/>
<text text-anchor="start" x="270" y="-314.8" font-family="arial" font-size="14.00">Voltage Selector:4</text>
<text text-anchor="start" x="384" y="-314.8" font-family="arial" font-size="14.00">OG</text>
<text text-anchor="start" x="411" y="-314.8" font-family="arial" font-size="14.00">Power Block J2:7</text>
<polygon fill="#ff8000" stroke="transparent" stroke-width="2" points="268,-303 268,-309 518,-309 518,-303 268,-303"/>
<polyline fill="none" stroke="black" stroke-width="2" points="269,-304 517,-304 "/>
<polyline fill="none" stroke="black" stroke-width="2" points="517,-308 269,-308 "/>
<text text-anchor="start" x="323" y="-289.8" font-family="arial" font-size="14.00"> </text>
</g>
<!-- Voltage Selector&#45;&#45;W2 -->
<g id="edge11" class="edge">
<title>Voltage Selector:e&#45;&#45;W2:w</title>
<path fill="none" stroke="#000000" stroke-width="2" d="M115,-375C183.04,-375.05 199.88,-379.05 267,-379"/>
<path fill="none" stroke="#0066ff" stroke-width="2" d="M115,-377C182.58,-377 199.42,-381 267,-381"/>
<path fill="none" stroke="#000000" stroke-width="2" d="M115,-379C182.12,-378.95 198.96,-382.95 267,-383"/>
</g>
<!-- Voltage Selector&#45;&#45;W2 -->
<g id="edge13" class="edge">
<title>Voltage Selector:e&#45;&#45;W2:w</title>
<path fill="none" stroke="#000000" stroke-width="2" d="M115,-352C182.8,-352.01 199.67,-354.01 267,-354"/>
<path fill="none" stroke="#00ff00" stroke-width="2" d="M115,-354C182.56,-354 199.44,-356 267,-356"/>
<path fill="none" stroke="#000000" stroke-width="2" d="M115,-356C182.33,-355.99 199.2,-357.99 267,-358"/>
</g>
<!-- Voltage Selector&#45;&#45;W2 -->
<g id="edge15" class="edge">
<title>Voltage Selector:e&#45;&#45;W2:w</title>
<path fill="none" stroke="#000000" stroke-width="2" d="M115,-329C182.56,-329 199.44,-329 267,-329"/>
<path fill="none" stroke="#ffff00" stroke-width="2" d="M115,-331C182.56,-331 199.44,-331 267,-331"/>
<path fill="none" stroke="#000000" stroke-width="2" d="M115,-333C182.56,-333 199.44,-333 267,-333"/>
</g>
<!-- Voltage Selector&#45;&#45;W2 -->
<g id="edge17" class="edge">
<title>Voltage Selector:e&#45;&#45;W2:w</title>
<path fill="none" stroke="#000000" stroke-width="2" d="M115,-306C182.33,-306.01 199.2,-304.01 267,-304"/>
<path fill="none" stroke="#ff8000" stroke-width="2" d="M115,-308C182.56,-308 199.44,-306 267,-306"/>
<path fill="none" stroke="#000000" stroke-width="2" d="M115,-310C182.8,-309.99 199.67,-307.99 267,-308"/>
</g>
<!-- W3 -->
<g id="node8" class="node">
<title>W3</title>
<polygon fill="none" stroke="black" points="527,-259.5 259,-259.5 259,-154.5 527,-154.5 527,-259.5"/>
<polygon fill="none" stroke="black" points="259,-236 259,-259 527,-259 527,-236 259,-236"/>
<text text-anchor="start" x="382" y="-243.8" font-family="arial" font-size="14.00">W3</text>
<polygon fill="none" stroke="black" points="259,-213 259,-236 527,-236 527,-213 259,-213"/>
<text text-anchor="start" x="385.5" y="-220.8" font-family="arial" font-size="14.00">1x</text>
<text text-anchor="start" x="391" y="-201.8" font-family="arial" font-size="14.00"> </text>
<text text-anchor="start" x="261" y="-184.8" font-family="arial" font-size="14.00">Voltage Selector:5</text>
<text text-anchor="start" x="375" y="-184.8" font-family="arial" font-size="14.00">BK</text>
<text text-anchor="start" x="398" y="-184.8" font-family="arial" font-size="14.00">Power Block Mains:1</text>
<polygon fill="#000000" stroke="transparent" points="259,-173 259,-179 527,-179 527,-173 259,-173"/>
<polyline fill="none" stroke="black" stroke-width="2" points="260,-174 526,-174 "/>
<polyline fill="none" stroke="black" stroke-width="2" points="526,-178 260,-178 "/>
<text text-anchor="start" x="314" y="-159.8" font-family="arial" font-size="14.00"> </text>
</g>
<!-- Voltage Selector&#45;&#45;W3 -->
<g id="edge19" class="edge">
<title>Voltage Selector:e&#45;&#45;W3:w</title>
<path fill="none" stroke="#000000" stroke-width="2" d="M115,-283C193.29,-285.3 176.76,-176.3 259,-174"/>
<path fill="none" stroke="#000000" stroke-width="2" d="M115,-285C195.27,-285 178.73,-176 259,-176"/>
<path fill="none" stroke="#000000" stroke-width="2" d="M115,-287C197.24,-284.7 180.71,-175.7 259,-178"/>
</g>
<!-- W1&#45;&#45;Power Block J2 -->
<g id="edge2" class="edge">
<title>W1:e&#45;&#45;Power Block J2:w</title>
<path fill="none" stroke="#000000" stroke-width="2" d="M508,-608C601.93,-610.29 583.11,-481.29 681,-479"/>
<path fill="none" stroke="#ffffff" stroke-width="2" d="M508,-610C603.91,-610 585.09,-481 681,-481"/>
<path fill="none" stroke="#000000" stroke-width="2" d="M508,-612C605.89,-609.71 587.07,-480.71 681,-483"/>
</g>
<!-- W1&#45;&#45;Power Block J2 -->
<g id="edge4" class="edge">
<title>W1:e&#45;&#45;Power Block J2:w</title>
<path fill="none" stroke="#000000" stroke-width="2" d="M508,-583C607.81,-585.4 577.27,-435.4 681,-433"/>
<path fill="none" stroke="#0066ff" stroke-width="2" d="M508,-585C609.77,-585 579.23,-435 681,-435"/>
<path fill="none" stroke="#000000" stroke-width="2" d="M508,-587C611.73,-584.6 581.19,-434.6 681,-437"/>
</g>
<!-- W1&#45;&#45;Power Block J2 -->
<g id="edge6" class="edge">
<title>W1:e&#45;&#45;Power Block J2:w</title>
<path fill="none" stroke="#000000" stroke-width="2" d="M508,-558C607.22,-560.39 577.85,-412.39 681,-410"/>
<path fill="none" stroke="#00ff00" stroke-width="2" d="M508,-560C609.19,-560 579.81,-412 681,-412"/>
<path fill="none" stroke="#000000" stroke-width="2" d="M508,-562C611.15,-559.61 581.78,-411.61 681,-414"/>
</g>
<!-- W1&#45;&#45;Power Block J2 -->
<g id="edge8" class="edge">
<title>W1:e&#45;&#45;Power Block J2:w</title>
<path fill="none" stroke="#000000" stroke-width="2" d="M508,-533C613.55,-535.48 571.57,-366.48 681,-364"/>
<path fill="none" stroke="#ffff00" stroke-width="2" d="M508,-535C615.49,-535 573.51,-366 681,-366"/>
<path fill="none" stroke="#000000" stroke-width="2" d="M508,-537C617.43,-534.52 575.45,-365.52 681,-368"/>
</g>
<!-- W1&#45;&#45;Power Block J2 -->
<g id="edge10" class="edge">
<title>W1:e&#45;&#45;Power Block J2:w</title>
<path fill="none" stroke="#000000" stroke-width="2" d="M508,-508C612.93,-510.47 572.19,-343.47 681,-341"/>
<path fill="none" stroke="#ff8000" stroke-width="2" d="M508,-510C614.87,-510 574.13,-343 681,-343"/>
<path fill="none" stroke="#000000" stroke-width="2" d="M508,-512C616.81,-509.53 576.07,-342.53 681,-345"/>
</g>
<!-- W2&#45;&#45;Power Block J2 -->
<g id="edge12" class="edge">
<title>W2:e&#45;&#45;Power Block J2:w</title>
<path fill="none" stroke="#000000" stroke-width="2" d="M519,-379C596.86,-380.63 607.07,-434.63 681,-433"/>
<path fill="none" stroke="#0066ff" stroke-width="2" d="M519,-381C594.89,-381 605.11,-435 681,-435"/>
<path fill="none" stroke="#000000" stroke-width="2" d="M519,-383C592.93,-381.37 603.14,-435.37 681,-437"/>
</g>
<!-- W2&#45;&#45;Power Block J2 -->
<g id="edge14" class="edge">
<title>W2:e&#45;&#45;Power Block J2:w</title>
<path fill="none" stroke="#000000" stroke-width="2" d="M519,-354C597.15,-355.66 606.79,-411.66 681,-410"/>
<path fill="none" stroke="#00ff00" stroke-width="2" d="M519,-356C595.18,-356 604.82,-412 681,-412"/>
<path fill="none" stroke="#000000" stroke-width="2" d="M519,-358C593.21,-356.34 602.85,-412.34 681,-414"/>
</g>
<!-- W2&#45;&#45;Power Block J2 -->
<g id="edge16" class="edge">
<title>W2:e&#45;&#45;Power Block J2:w</title>
<path fill="none" stroke="#000000" stroke-width="2" d="M519,-329C594.51,-330.23 609.18,-365.23 681,-364"/>
<path fill="none" stroke="#ffff00" stroke-width="2" d="M519,-331C592.66,-331 607.34,-366 681,-366"/>
<path fill="none" stroke="#000000" stroke-width="2" d="M519,-333C590.82,-331.77 605.49,-366.77 681,-368"/>
</g>
<!-- W2&#45;&#45;Power Block J2 -->
<g id="edge18" class="edge">
<title>W2:e&#45;&#45;Power Block J2:w</title>
<path fill="none" stroke="#000000" stroke-width="2" d="M519,-304C594.72,-305.28 609.01,-342.28 681,-341"/>
<path fill="none" stroke="#ff8000" stroke-width="2" d="M519,-306C592.85,-306 607.15,-343 681,-343"/>
<path fill="none" stroke="#000000" stroke-width="2" d="M519,-308C590.99,-306.72 605.28,-343.72 681,-345"/>
</g>
<!-- W3&#45;&#45;Power Block Mains -->
<g id="edge20" class="edge">
<title>W3:e&#45;&#45;Power Block Mains:w</title>
<path fill="none" stroke="#000000" stroke-width="2" d="M527,-174C590.98,-175.34 603.25,-140.34 671,-139"/>
<path fill="none" stroke="#000000" stroke-width="2" d="M527,-176C592.86,-176 605.14,-141 671,-141"/>
<path fill="none" stroke="#000000" stroke-width="2" d="M527,-178C594.75,-176.66 607.02,-141.66 671,-143"/>
</g>
<!-- W4&#45;&#45;Power Block Mains -->
<g id="edge24" class="edge">
<title>W4:e&#45;&#45;Power Block Mains:w</title>
<path fill="none" stroke="#000000" stroke-width="2" d="M521,-20C602.14,-22.17 593.84,-118.17 671,-116"/>
<path fill="none" stroke="#666600" stroke-width="2" d="M521,-22C600.15,-22 591.85,-118 671,-118"/>
<path fill="none" stroke="#000000" stroke-width="2" d="M521,-24C598.16,-21.83 589.86,-117.83 671,-120"/>
</g>
<!-- W4&#45;&#45;Power Block J2 -->
<g id="edge22" class="edge">
<title>W4:e&#45;&#45;Power Block J2:w</title>
<path fill="none" stroke="#000000" stroke-width="2" d="M521,-45C654.77,-47.77 550.93,-297.77 681,-295"/>
<path fill="none" stroke="#999999" stroke-width="2" d="M521,-47C652.92,-47 549.08,-297 681,-297"/>
<path fill="none" stroke="#000000" stroke-width="2" d="M521,-49C651.07,-46.23 547.23,-296.23 681,-299"/>
</g>
</g>
</svg>
