<?xml version="1.0" encoding="UTF-8" standalone="no"?>
<!DOCTYPE svg PUBLIC "-//W3C//DTD SVG 1.1//EN"
 "http://www.w3.org/Graphics/SVG/1.1/DTD/svg11.dtd">
<!-- Generated by graphviz version 2.43.0 (0)
 -->
<!-- Title: %3 Pages: 1 -->
<svg width="730pt" height="376pt"
 viewBox="0.00 0.00 730.00 375.50" xmlns="http://www.w3.org/2000/svg" xmlns:xlink="http://www.w3.org/1999/xlink">
<g id="graph0" class="graph" transform="scale(1 1) rotate(0) translate(4 371.5)">
<title>%3</title>
<polygon fill="white" stroke="transparent" points="-4,4 -4,-371.5 726,-371.5 726,4 -4,4"/>
<!-- PSU J2 -->
<g id="node1" class="node">
<title>PSU J2</title>
<polygon fill="white" stroke="black" points="588,-91 588,-367 722,-367 722,-91 588,-91"/>
<text text-anchor="middle" x="655" y="-351.8" font-family="arial" font-size="14.00">PSU J2</text>
<polyline fill="none" stroke="black" points="588,-344 722,-344 "/>
<text text-anchor="middle" x="655" y="-328.8" font-family="arial" font-size="14.00">10&#45;pin</text>
<polyline fill="none" stroke="black" points="588,-321 722,-321 "/>
<text text-anchor="middle" x="604" y="-305.8" font-family="arial" font-size="14.00">1</text>
<polyline fill="none" stroke="black" points="588,-298 620,-298 "/>
<text text-anchor="middle" x="604" y="-282.8" font-family="arial" font-size="14.00">2</text>
<polyline fill="none" stroke="black" points="588,-275 620,-275 "/>
<text text-anchor="middle" x="604" y="-259.8" font-family="arial" font-size="14.00">3</text>
<polyline fill="none" stroke="black" points="588,-252 620,-252 "/>
<text text-anchor="middle" x="604" y="-236.8" font-family="arial" font-size="14.00">4</text>
<polyline fill="none" stroke="black" points="588,-229 620,-229 "/>
<text text-anchor="middle" x="604" y="-213.8" font-family="arial" font-size="14.00">5</text>
<polyline fill="none" stroke="black" points="588,-206 620,-206 "/>
<text text-anchor="middle" x="604" y="-190.8" font-family="arial" font-size="14.00">6</text>
<polyline fill="none" stroke="black" points="588,-183 620,-183 "/>
<text text-anchor="middle" x="604" y="-167.8" font-family="arial" font-size="14.00">7</text>
<polyline fill="none" stroke="black" points="588,-160 620,-160 "/>
<text text-anchor="middle" x="604" y="-144.8" font-family="arial" font-size="14.00">8</text>
<polyline fill="none" stroke="black" points="588,-137 620,-137 "/>
<text text-anchor="middle" x="604" y="-121.8" font-family="arial" font-size="14.00">9</text>
<polyline fill="none" stroke="black" points="588,-114 620,-114 "/>
<text text-anchor="middle" x="604" y="-98.8" font-family="arial" font-size="14.00">10</text>
<polyline fill="none" stroke="black" points="620,-91 620,-321 "/>
<text text-anchor="middle" x="671" y="-305.8" font-family="arial" font-size="14.00">+5V (Backup)</text>
<polyline fill="none" stroke="black" points="620,-298 722,-298 "/>
<text text-anchor="middle" x="671" y="-282.8" font-family="arial" font-size="14.00">PCK</text>
<polyline fill="none" stroke="black" points="620,-275 722,-275 "/>
<text text-anchor="middle" x="671" y="-259.8" font-family="arial" font-size="14.00">RESET</text>
<polyline fill="none" stroke="black" points="620,-252 722,-252 "/>
<text text-anchor="middle" x="671" y="-236.8" font-family="arial" font-size="14.00">GND (Digital)</text>
<polyline fill="none" stroke="black" points="620,-229 722,-229 "/>
<text text-anchor="middle" x="671" y="-213.8" font-family="arial" font-size="14.00">GND (Digital)</text>
<polyline fill="none" stroke="black" points="620,-206 722,-206 "/>
<text text-anchor="middle" x="671" y="-190.8" font-family="arial" font-size="14.00">+5V</text>
<polyline fill="none" stroke="black" points="620,-183 722,-183 "/>
<text text-anchor="middle" x="671" y="-167.8" font-family="arial" font-size="14.00">+5V</text>
<polyline fill="none" stroke="black" points="620,-160 722,-160 "/>
<text text-anchor="middle" x="671" y="-144.8" font-family="arial" font-size="14.00">+12V</text>
<polyline fill="none" stroke="black" points="620,-137 722,-137 "/>
<text text-anchor="middle" x="671" y="-121.8" font-family="arial" font-size="14.00">GND (Analog)</text>
<polyline fill="none" stroke="black" points="620,-114 722,-114 "/>
<text text-anchor="middle" x="671" y="-98.8" font-family="arial" font-size="14.00">&#45;12V</text>
</g>
<!-- CPU J4 -->
<g id="node2" class="node">
<title>CPU J4</title>
<polygon fill="white" stroke="black" points="0,-20 0,-296 134,-296 134,-20 0,-20"/>
<text text-anchor="middle" x="67" y="-280.8" font-family="arial" font-size="14.00">CPU J4</text>
<polyline fill="none" stroke="black" points="0,-273 134,-273 "/>
<text text-anchor="middle" x="67" y="-257.8" font-family="arial" font-size="14.00">10&#45;pin</text>
<polyline fill="none" stroke="black" points="0,-250 134,-250 "/>
<text text-anchor="middle" x="51" y="-234.8" font-family="arial" font-size="14.00">GND (Digital)</text>
<polyline fill="none" stroke="black" points="0,-227 102,-227 "/>
<text text-anchor="middle" x="51" y="-211.8" font-family="arial" font-size="14.00">GND (Digital)</text>
<polyline fill="none" stroke="black" points="0,-204 102,-204 "/>
<text text-anchor="middle" x="51" y="-188.8" font-family="arial" font-size="14.00">+5V</text>
<polyline fill="none" stroke="black" points="0,-181 102,-181 "/>
<text text-anchor="middle" x="51" y="-165.8" font-family="arial" font-size="14.00">+12V</text>
<polyline fill="none" stroke="black" points="0,-158 102,-158 "/>
<text text-anchor="middle" x="51" y="-142.8" font-family="arial" font-size="14.00">&#45;12V</text>
<polyline fill="none" stroke="black" points="0,-135 102,-135 "/>
<text text-anchor="middle" x="51" y="-119.8" font-family="arial" font-size="14.00">GND (Analog)</text>
<polyline fill="none" stroke="black" points="0,-112 102,-112 "/>
<text text-anchor="middle" x="51" y="-96.8" font-family="arial" font-size="14.00">+5V (Backup)</text>
<polyline fill="none" stroke="black" points="0,-89 102,-89 "/>
<text text-anchor="middle" x="51" y="-73.8" font-family="arial" font-size="14.00">+5V</text>
<polyline fill="none" stroke="black" points="0,-66 102,-66 "/>
<text text-anchor="middle" x="51" y="-50.8" font-family="arial" font-size="14.00">PCK</text>
<polyline fill="none" stroke="black" points="0,-43 102,-43 "/>
<text text-anchor="middle" x="51" y="-27.8" font-family="arial" font-size="14.00">RESET</text>
<polyline fill="none" stroke="black" points="102,-20 102,-250 "/>
<text text-anchor="middle" x="118" y="-234.8" font-family="arial" font-size="14.00">1</text>
<polyline fill="none" stroke="black" points="102,-227 134,-227 "/>
<text text-anchor="middle" x="118" y="-211.8" font-family="arial" font-size="14.00">2</text>
<polyline fill="none" stroke="black" points="102,-204 134,-204 "/>
<text text-anchor="middle" x="118" y="-188.8" font-family="arial" font-size="14.00">3</text>
<polyline fill="none" stroke="black" points="102,-181 134,-181 "/>
<text text-anchor="middle" x="118" y="-165.8" font-family="arial" font-size="14.00">4</text>
<polyline fill="none" stroke="black" points="102,-158 134,-158 "/>
<text text-anchor="middle" x="118" y="-142.8" font-family="arial" font-size="14.00">5</text>
<polyline fill="none" stroke="black" points="102,-135 134,-135 "/>
<text text-anchor="middle" x="118" y="-119.8" font-family="arial" font-size="14.00">6</text>
<polyline fill="none" stroke="black" points="102,-112 134,-112 "/>
<text text-anchor="middle" x="118" y="-96.8" font-family="arial" font-size="14.00">7</text>
<polyline fill="none" stroke="black" points="102,-89 134,-89 "/>
<text text-anchor="middle" x="118" y="-73.8" font-family="arial" font-size="14.00">8</text>
<polyline fill="none" stroke="black" points="102,-66 134,-66 "/>
<text text-anchor="middle" x="118" y="-50.8" font-family="arial" font-size="14.00">9</text>
<polyline fill="none" stroke="black" points="102,-43 134,-43 "/>
<text text-anchor="middle" x="118" y="-27.8" font-family="arial" font-size="14.00">10</text>
</g>
<!-- W1 -->
<g id="node3" class="node">
<title>W1</title>
<polygon fill="none" stroke="black" points="444,-330 278,-330 278,0 444,0 444,-330"/>
<polygon fill="none" stroke="black" points="278,-307 278,-330 444,-330 444,-307 278,-307"/>
<text text-anchor="start" x="350" y="-314.8" font-family="arial" font-size="14.00">W1</text>
<polygon fill="none" stroke="black" points="278,-284 278,-307 444,-307 444,-284 278,-284"/>
<text text-anchor="start" x="350" y="-291.8" font-family="arial" font-size="14.00">10x</text>
<text text-anchor="start" x="359" y="-272.8" font-family="arial" font-size="14.00"> </text>
<text text-anchor="start" x="284" y="-255.8" font-family="arial" font-size="14.00">CPU J4:1</text>
<text text-anchor="start" x="352" y="-255.8" font-family="arial" font-size="14.00">BK</text>
<text text-anchor="start" x="380.5" y="-255.8" font-family="arial" font-size="14.00">PSU J2:4</text>
<polygon fill="#000000" stroke="transparent" points="278,-244 278,-250 444,-250 444,-244 278,-244"/>
<polyline fill="none" stroke="black" stroke-width="2" points="279,-245 443,-245 "/>
<polyline fill="none" stroke="black" stroke-width="2" points="443,-249 279,-249 "/>
<text text-anchor="start" x="284" y="-230.8" font-family="arial" font-size="14.00">CPU J4:2</text>
<text text-anchor="start" x="352" y="-230.8" font-family="arial" font-size="14.00">BK</text>
<text text-anchor="start" x="380.5" y="-230.8" font-family="arial" font-size="14.00">PSU J2:5</text>
<polygon fill="#000000" stroke="transparent" stroke-width="2" points="278,-219 278,-225 444,-225 444,-219 278,-219"/>
<polyline fill="none" stroke="black" stroke-width="2" points="279,-220 443,-220 "/>
<polyline fill="none" stroke="black" stroke-width="2" points="443,-224 279,-224 "/>
<text text-anchor="start" x="284" y="-205.8" font-family="arial" font-size="14.00">CPU J4:3</text>
<text text-anchor="start" x="351.5" y="-205.8" font-family="arial" font-size="14.00">RD</text>
<text text-anchor="start" x="380.5" y="-205.8" font-family="arial" font-size="14.00">PSU J2:6</text>
<polygon fill="#ff0000" stroke="transparent" stroke-width="2" points="278,-194 278,-200 444,-200 444,-194 278,-194"/>
<polyline fill="none" stroke="black" stroke-width="2" points="279,-195 443,-195 "/>
<polyline fill="none" stroke="black" stroke-width="2" points="443,-199 279,-199 "/>
<text text-anchor="start" x="284" y="-180.8" font-family="arial" font-size="14.00">CPU J4:4</text>
<text text-anchor="start" x="352" y="-180.8" font-family="arial" font-size="14.00">BU</text>
<text text-anchor="start" x="380.5" y="-180.8" font-family="arial" font-size="14.00">PSU J2:8</text>
<polygon fill="#0066ff" stroke="transparent" stroke-width="2" points="278,-169 278,-175 444,-175 444,-169 278,-169"/>
<polyline fill="none" stroke="black" stroke-width="2" points="279,-170 443,-170 "/>
<polyline fill="none" stroke="black" stroke-width="2" points="443,-174 279,-174 "/>
<text text-anchor="start" x="284" y="-155.8" font-family="arial" font-size="14.00">CPU J4:5</text>
<text text-anchor="start" x="350" y="-155.8" font-family="arial" font-size="14.00">OG</text>
<text text-anchor="start" x="377" y="-155.8" font-family="arial" font-size="14.00">PSU J2:10</text>
<polygon fill="#ff8000" stroke="transparent" stroke-width="2" points="278,-144 278,-150 444,-150 444,-144 278,-144"/>
<polyline fill="none" stroke="black" stroke-width="2" points="279,-145 443,-145 "/>
<polyline fill="none" stroke="black" stroke-width="2" points="443,-149 279,-149 "/>
<text text-anchor="start" x="284" y="-130.8" font-family="arial" font-size="14.00">CPU J4:6</text>
<text text-anchor="start" x="352" y="-130.8" font-family="arial" font-size="14.00">BK</text>
<text text-anchor="start" x="380.5" y="-130.8" font-family="arial" font-size="14.00">PSU J2:9</text>
<polygon fill="#000000" stroke="transparent" stroke-width="2" points="278,-119 278,-125 444,-125 444,-119 278,-119"/>
<polyline fill="none" stroke="black" stroke-width="2" points="279,-120 443,-120 "/>
<polyline fill="none" stroke="black" stroke-width="2" points="443,-124 279,-124 "/>
<text text-anchor="start" x="284" y="-105.8" font-family="arial" font-size="14.00">CPU J4:7</text>
<text text-anchor="start" x="351.5" y="-105.8" font-family="arial" font-size="14.00">RD</text>
<text text-anchor="start" x="380.5" y="-105.8" font-family="arial" font-size="14.00">PSU J2:1</text>
<polygon fill="#ff0000" stroke="transparent" stroke-width="2" points="278,-94 278,-100 444,-100 444,-94 278,-94"/>
<polyline fill="none" stroke="black" stroke-width="2" points="279,-95 443,-95 "/>
<polyline fill="none" stroke="black" stroke-width="2" points="443,-99 279,-99 "/>
<text text-anchor="start" x="284" y="-80.8" font-family="arial" font-size="14.00">CPU J4:8</text>
<text text-anchor="start" x="351.5" y="-80.8" font-family="arial" font-size="14.00">RD</text>
<text text-anchor="start" x="380.5" y="-80.8" font-family="arial" font-size="14.00">PSU J2:7</text>
<polygon fill="#ff0000" stroke="transparent" stroke-width="2" points="278,-69 278,-75 444,-75 444,-69 278,-69"/>
<polyline fill="none" stroke="black" stroke-width="2" points="279,-70 443,-70 "/>
<polyline fill="none" stroke="black" stroke-width="2" points="443,-74 279,-74 "/>
<text text-anchor="start" x="284" y="-55.8" font-family="arial" font-size="14.00">CPU J4:9</text>
<text text-anchor="start" x="352.5" y="-55.8" font-family="arial" font-size="14.00">VT</text>
<text text-anchor="start" x="380.5" y="-55.8" font-family="arial" font-size="14.00">PSU J2:2</text>
<polygon fill="#8000ff" stroke="transparent" stroke-width="2" points="278,-44 278,-50 444,-50 444,-44 278,-44"/>
<polyline fill="none" stroke="black" stroke-width="2" points="279,-45 443,-45 "/>
<polyline fill="none" stroke="black" stroke-width="2" points="443,-49 279,-49 "/>
<text text-anchor="start" x="280" y="-30.8" font-family="arial" font-size="14.00">CPU J4:10</text>
<text text-anchor="start" x="352" y="-30.8" font-family="arial" font-size="14.00">YE</text>
<text text-anchor="start" x="380.5" y="-30.8" font-family="arial" font-size="14.00">PSU J2:3</text>
<polygon fill="#ffff00" stroke="transparent" stroke-width="2" points="278,-19 278,-25 444,-25 444,-19 278,-19"/>
<polyline fill="none" stroke="black" stroke-width="2" points="279,-20 443,-20 "/>
<polyline fill="none" stroke="black" stroke-width="2" points="443,-24 279,-24 "/>
<text text-anchor="start" x="311" y="-5.8" font-family="arial" font-size="14.00"> </text>
</g>
<!-- CPU J4&#45;&#45;W1 -->
<g id="edge1" class="edge">
<title>CPU J4:e&#45;&#45;W1:w</title>
<path fill="none" stroke="#000000" stroke-width="2" d="M134,-237C199,-237.22 214.8,-245.22 278,-245"/>
<path fill="none" stroke="#000000" stroke-width="2" d="M134,-239C198.1,-239 213.9,-247 278,-247"/>
<path fill="none" stroke="#000000" stroke-width="2" d="M134,-241C197.2,-240.78 213,-248.78 278,-249"/>
</g>
<!-- CPU J4&#45;&#45;W1 -->
<g id="edge3" class="edge">
<title>CPU J4:e&#45;&#45;W1:w</title>
<path fill="none" stroke="#000000" stroke-width="2" d="M134,-214C198.76,-214.13 214.65,-220.13 278,-220"/>
<path fill="none" stroke="#000000" stroke-width="2" d="M134,-216C198.06,-216 213.94,-222 278,-222"/>
<path fill="none" stroke="#000000" stroke-width="2" d="M134,-218C197.35,-217.87 213.24,-223.87 278,-224"/>
</g>
<!-- CPU J4&#45;&#45;W1 -->
<g id="edge5" class="edge">
<title>CPU J4:e&#45;&#45;W1:w</title>
<path fill="none" stroke="#000000" stroke-width="2" d="M134,-191C198.51,-191.06 214.46,-195.06 278,-195"/>
<path fill="none" stroke="#ff0000" stroke-width="2" d="M134,-193C198.02,-193 213.98,-197 278,-197"/>
<path fill="none" stroke="#000000" stroke-width="2" d="M134,-195C197.54,-194.94 213.49,-198.94 278,-199"/>
</g>
<!-- CPU J4&#45;&#45;W1 -->
<g id="edge7" class="edge">
<title>CPU J4:e&#45;&#45;W1:w</title>
<path fill="none" stroke="#000000" stroke-width="2" d="M134,-168C198.25,-168.02 214.24,-170.02 278,-170"/>
<path fill="none" stroke="#0066ff" stroke-width="2" d="M134,-170C198.01,-170 213.99,-172 278,-172"/>
<path fill="none" stroke="#000000" stroke-width="2" d="M134,-172C197.76,-171.98 213.75,-173.98 278,-174"/>
</g>
<!-- CPU J4&#45;&#45;W1 -->
<g id="edge9" class="edge">
<title>CPU J4:e&#45;&#45;W1:w</title>
<path fill="none" stroke="#000000" stroke-width="2" d="M134,-144C198.13,-144 214.12,-145 278,-145"/>
<path fill="none" stroke="#ff8000" stroke-width="2" d="M134,-146C198,-146 214,-147 278,-147"/>
<path fill="none" stroke="#000000" stroke-width="2" d="M134,-148C197.88,-148 213.87,-149 278,-149"/>
</g>
<!-- CPU J4&#45;&#45;W1 -->
<g id="edge11" class="edge">
<title>CPU J4:e&#45;&#45;W1:w</title>
<path fill="none" stroke="#000000" stroke-width="2" d="M134,-121C197.88,-121 213.87,-120 278,-120"/>
<path fill="none" stroke="#000000" stroke-width="2" d="M134,-123C198,-123 214,-122 278,-122"/>
<path fill="none" stroke="#000000" stroke-width="2" d="M134,-125C198.13,-125 214.12,-124 278,-124"/>
</g>
<!-- CPU J4&#45;&#45;W1 -->
<g id="edge13" class="edge">
<title>CPU J4:e&#45;&#45;W1:w</title>
<path fill="none" stroke="#000000" stroke-width="2" d="M134,-98C197.64,-98.03 213.62,-95.03 278,-95"/>
<path fill="none" stroke="#ff0000" stroke-width="2" d="M134,-100C198.01,-100 213.99,-97 278,-97"/>
<path fill="none" stroke="#000000" stroke-width="2" d="M134,-102C198.38,-101.97 214.36,-98.97 278,-99"/>
</g>
<!-- CPU J4&#45;&#45;W1 -->
<g id="edge15" class="edge">
<title>CPU J4:e&#45;&#45;W1:w</title>
<path fill="none" stroke="#000000" stroke-width="2" d="M134,-75C197.44,-75.09 213.36,-70.09 278,-70"/>
<path fill="none" stroke="#ff0000" stroke-width="2" d="M134,-77C198.04,-77 213.96,-72 278,-72"/>
<path fill="none" stroke="#000000" stroke-width="2" d="M134,-79C198.64,-78.91 214.56,-73.91 278,-74"/>
</g>
<!-- CPU J4&#45;&#45;W1 -->
<g id="edge17" class="edge">
<title>CPU J4:e&#45;&#45;W1:w</title>
<path fill="none" stroke="#000000" stroke-width="2" d="M134,-52C197.27,-52.17 213.12,-45.17 278,-45"/>
<path fill="none" stroke="#8000ff" stroke-width="2" d="M134,-54C198.08,-54 213.92,-47 278,-47"/>
<path fill="none" stroke="#000000" stroke-width="2" d="M134,-56C198.88,-55.83 214.73,-48.83 278,-49"/>
</g>
<!-- CPU J4&#45;&#45;W1 -->
<g id="edge19" class="edge">
<title>CPU J4:e&#45;&#45;W1:w</title>
<path fill="none" stroke="#000000" stroke-width="2" d="M134,-29C197.13,-29.26 212.88,-20.26 278,-20"/>
<path fill="none" stroke="#ffff00" stroke-width="2" d="M134,-31C198.12,-31 213.88,-22 278,-22"/>
<path fill="none" stroke="#000000" stroke-width="2" d="M134,-33C199.12,-32.74 214.87,-23.74 278,-24"/>
</g>
<!-- W1&#45;&#45;PSU J2 -->
<g id="edge2" class="edge">
<title>W1:e&#45;&#45;PSU J2:w</title>
<path fill="none" stroke="#000000" stroke-width="2" d="M444,-245C507.35,-245.13 523.24,-239.13 588,-239"/>
<path fill="none" stroke="#000000" stroke-width="2" d="M444,-247C508.06,-247 523.94,-241 588,-241"/>
<path fill="none" stroke="#000000" stroke-width="2" d="M444,-249C508.76,-248.87 524.65,-242.87 588,-243"/>
</g>
<!-- W1&#45;&#45;PSU J2 -->
<g id="edge4" class="edge">
<title>W1:e&#45;&#45;PSU J2:w</title>
<path fill="none" stroke="#000000" stroke-width="2" d="M444,-220C507.44,-220.09 523.36,-215.09 588,-215"/>
<path fill="none" stroke="#000000" stroke-width="2" d="M444,-222C508.04,-222 523.96,-217 588,-217"/>
<path fill="none" stroke="#000000" stroke-width="2" d="M444,-224C508.64,-223.91 524.56,-218.91 588,-219"/>
</g>
<!-- W1&#45;&#45;PSU J2 -->
<g id="edge6" class="edge">
<title>W1:e&#45;&#45;PSU J2:w</title>
<path fill="none" stroke="#000000" stroke-width="2" d="M444,-195C507.64,-195.03 523.62,-192.03 588,-192"/>
<path fill="none" stroke="#ff0000" stroke-width="2" d="M444,-197C508.01,-197 523.99,-194 588,-194"/>
<path fill="none" stroke="#000000" stroke-width="2" d="M444,-199C508.38,-198.97 524.36,-195.97 588,-196"/>
</g>
<!-- W1&#45;&#45;PSU J2 -->
<g id="edge8" class="edge">
<title>W1:e&#45;&#45;PSU J2:w</title>
<path fill="none" stroke="#000000" stroke-width="2" d="M444,-170C507.16,-170.98 521.4,-146.98 588,-146"/>
<path fill="none" stroke="#0066ff" stroke-width="2" d="M444,-172C508.88,-172 523.12,-148 588,-148"/>
<path fill="none" stroke="#000000" stroke-width="2" d="M444,-174C510.6,-173.02 524.84,-149.02 588,-150"/>
</g>
<!-- W1&#45;&#45;PSU J2 -->
<g id="edge10" class="edge">
<title>W1:e&#45;&#45;PSU J2:w</title>
<path fill="none" stroke="#000000" stroke-width="2" d="M444,-145C509.1,-146.57 518.99,-101.57 588,-100"/>
<path fill="none" stroke="#ff8000" stroke-width="2" d="M444,-147C511.05,-147 520.95,-102 588,-102"/>
<path fill="none" stroke="#000000" stroke-width="2" d="M444,-149C513.01,-147.43 522.9,-102.43 588,-104"/>
</g>
<!-- W1&#45;&#45;PSU J2 -->
<g id="edge12" class="edge">
<title>W1:e&#45;&#45;PSU J2:w</title>
<path fill="none" stroke="#000000" stroke-width="2" d="M444,-120C508.38,-120.03 524.36,-123.03 588,-123"/>
<path fill="none" stroke="#000000" stroke-width="2" d="M444,-122C508.01,-122 523.99,-125 588,-125"/>
<path fill="none" stroke="#000000" stroke-width="2" d="M444,-124C507.64,-123.97 523.62,-126.97 588,-127"/>
</g>
<!-- W1&#45;&#45;PSU J2 -->
<g id="edge14" class="edge">
<title>W1:e&#45;&#45;PSU J2:w</title>
<path fill="none" stroke="#000000" stroke-width="2" d="M444,-95C560.13,-97.74 475.59,-310.74 588,-308"/>
<path fill="none" stroke="#ff0000" stroke-width="2" d="M444,-97C558.27,-97 473.73,-310 588,-310"/>
<path fill="none" stroke="#000000" stroke-width="2" d="M444,-99C556.41,-96.26 471.87,-309.26 588,-312"/>
</g>
<!-- W1&#45;&#45;PSU J2 -->
<g id="edge16" class="edge">
<title>W1:e&#45;&#45;PSU J2:w</title>
<path fill="none" stroke="#000000" stroke-width="2" d="M444,-70C523.65,-72.23 512.32,-171.23 588,-169"/>
<path fill="none" stroke="#ff0000" stroke-width="2" d="M444,-72C521.67,-72 510.33,-171 588,-171"/>
<path fill="none" stroke="#000000" stroke-width="2" d="M444,-74C519.68,-71.77 508.35,-170.77 588,-173"/>
</g>
<!-- W1&#45;&#45;PSU J2 -->
<g id="edge18" class="edge">
<title>W1:e&#45;&#45;PSU J2:w</title>
<path fill="none" stroke="#000000" stroke-width="2" d="M444,-45C570.23,-47.8 465.44,-287.8 588,-285"/>
<path fill="none" stroke="#8000ff" stroke-width="2" d="M444,-47C568.39,-47 463.61,-287 588,-287"/>
<path fill="none" stroke="#000000" stroke-width="2" d="M444,-49C566.56,-46.2 461.77,-286.2 588,-289"/>
</g>
<!-- W1&#45;&#45;PSU J2 -->
<g id="edge20" class="edge">
<title>W1:e&#45;&#45;PSU J2:w</title>
<path fill="none" stroke="#000000" stroke-width="2" d="M444,-20C570.99,-22.8 464.67,-264.8 588,-262"/>
<path fill="none" stroke="#ffff00" stroke-width="2" d="M444,-22C569.16,-22 462.84,-264 588,-264"/>
<path fill="none" stroke="#000000" stroke-width="2" d="M444,-24C567.33,-21.2 461.01,-263.2 588,-266"/>
</g>
</g>
</svg>
