<?xml version="1.0" encoding="UTF-8" standalone="no"?>
<!DOCTYPE svg PUBLIC "-//W3C//DTD SVG 1.1//EN"
 "http://www.w3.org/Graphics/SVG/1.1/DTD/svg11.dtd">
<!-- Generated by graphviz version 2.43.0 (0)
 -->
<!-- Title: %3 Pages: 1 -->
<svg width="650pt" height="369pt"
 viewBox="0.00 0.00 650.00 368.50" xmlns="http://www.w3.org/2000/svg" xmlns:xlink="http://www.w3.org/1999/xlink">
<g id="graph0" class="graph" transform="scale(1 1) rotate(0) translate(4 364.5)">
<title>%3</title>
<polygon fill="white" stroke="transparent" points="-4,4 -4,-364.5 646,-364.5 646,4 -4,4"/>
<!-- PBK Mains -->
<g id="node1" class="node">
<title>PBK Mains</title>
<polygon fill="white" stroke="black" points="558,-8.5 558,-77.5 642,-77.5 642,-8.5 558,-8.5"/>
<text text-anchor="middle" x="600" y="-62.3" font-family="arial" font-size="14.00">PBK Mains</text>
<polyline fill="none" stroke="black" points="558,-54.5 642,-54.5 "/>
<text text-anchor="middle" x="600" y="-39.3" font-family="arial" font-size="14.00">1&#45;pin</text>
<polyline fill="none" stroke="black" points="558,-31.5 642,-31.5 "/>
<text text-anchor="middle" x="571.5" y="-16.3" font-family="arial" font-size="14.00">1</text>
<polyline fill="none" stroke="black" points="585,-8.5 585,-31.5 "/>
<text text-anchor="middle" x="613.5" y="-16.3" font-family="arial" font-size="14.00">Mains</text>
</g>
<!-- PBK J2 -->
<g id="node2" class="node">
<title>PBK J2</title>
<polygon fill="white" stroke="black" points="565.5,-102.5 565.5,-355.5 634.5,-355.5 634.5,-102.5 565.5,-102.5"/>
<text text-anchor="middle" x="600" y="-340.3" font-family="arial" font-size="14.00">PBK J2</text>
<polyline fill="none" stroke="black" points="565.5,-332.5 634.5,-332.5 "/>
<text text-anchor="middle" x="600" y="-317.3" font-family="arial" font-size="14.00">9&#45;pin</text>
<polyline fill="none" stroke="black" points="565.5,-309.5 634.5,-309.5 "/>
<text text-anchor="middle" x="577.5" y="-294.3" font-family="arial" font-size="14.00">1</text>
<polyline fill="none" stroke="black" points="565.5,-286.5 589.5,-286.5 "/>
<text text-anchor="middle" x="577.5" y="-271.3" font-family="arial" font-size="14.00">2</text>
<polyline fill="none" stroke="black" points="565.5,-263.5 589.5,-263.5 "/>
<text text-anchor="middle" x="577.5" y="-248.3" font-family="arial" font-size="14.00">3</text>
<polyline fill="none" stroke="black" points="565.5,-240.5 589.5,-240.5 "/>
<text text-anchor="middle" x="577.5" y="-225.3" font-family="arial" font-size="14.00">4</text>
<polyline fill="none" stroke="black" points="565.5,-217.5 589.5,-217.5 "/>
<text text-anchor="middle" x="577.5" y="-202.3" font-family="arial" font-size="14.00">5</text>
<polyline fill="none" stroke="black" points="565.5,-194.5 589.5,-194.5 "/>
<text text-anchor="middle" x="577.5" y="-179.3" font-family="arial" font-size="14.00">6</text>
<polyline fill="none" stroke="black" points="565.5,-171.5 589.5,-171.5 "/>
<text text-anchor="middle" x="577.5" y="-156.3" font-family="arial" font-size="14.00">7</text>
<polyline fill="none" stroke="black" points="565.5,-148.5 589.5,-148.5 "/>
<text text-anchor="middle" x="577.5" y="-133.3" font-family="arial" font-size="14.00">8</text>
<polyline fill="none" stroke="black" points="565.5,-125.5 589.5,-125.5 "/>
<text text-anchor="middle" x="577.5" y="-110.3" font-family="arial" font-size="14.00">9</text>
<polyline fill="none" stroke="black" points="589.5,-102.5 589.5,-309.5 "/>
<text text-anchor="middle" x="612" y="-294.3" font-family="arial" font-size="14.00">P2&#45;1</text>
<polyline fill="none" stroke="black" points="589.5,-286.5 634.5,-286.5 "/>
<text text-anchor="middle" x="612" y="-271.3" font-family="arial" font-size="14.00">P2&#45;2</text>
<polyline fill="none" stroke="black" points="589.5,-263.5 634.5,-263.5 "/>
<text text-anchor="middle" x="612" y="-248.3" font-family="arial" font-size="14.00">P2&#45;3</text>
<polyline fill="none" stroke="black" points="589.5,-240.5 634.5,-240.5 "/>
<text text-anchor="middle" x="612" y="-225.3" font-family="arial" font-size="14.00">P2&#45;4</text>
<polyline fill="none" stroke="black" points="589.5,-217.5 634.5,-217.5 "/>
<text text-anchor="middle" x="612" y="-202.3" font-family="arial" font-size="14.00">P2&#45;5</text>
<polyline fill="none" stroke="black" points="589.5,-194.5 634.5,-194.5 "/>
<text text-anchor="middle" x="612" y="-179.3" font-family="arial" font-size="14.00">P2&#45;6</text>
<polyline fill="none" stroke="black" points="589.5,-171.5 634.5,-171.5 "/>
<text text-anchor="middle" x="612" y="-156.3" font-family="arial" font-size="14.00">P2&#45;7</text>
<polyline fill="none" stroke="black" points="589.5,-148.5 634.5,-148.5 "/>
<text text-anchor="middle" x="612" y="-133.3" font-family="arial" font-size="14.00">P2&#45;8</text>
<polyline fill="none" stroke="black" points="589.5,-125.5 634.5,-125.5 "/>
<text text-anchor="middle" x="612" y="-110.3" font-family="arial" font-size="14.00">P2&#45;9</text>
</g>
<!-- Transformer -->
<g id="node3" class="node">
<title>Transformer</title>
<polygon fill="white" stroke="black" points="0,-169.5 0,-330.5 91,-330.5 91,-169.5 0,-169.5"/>
<text text-anchor="middle" x="45.5" y="-315.3" font-family="arial" font-size="14.00">Transformer</text>
<polyline fill="none" stroke="black" points="0,-307.5 91,-307.5 "/>
<text text-anchor="middle" x="45.5" y="-292.3" font-family="arial" font-size="14.00">5&#45;pin</text>
<polyline fill="none" stroke="black" points="0,-284.5 91,-284.5 "/>
<text text-anchor="middle" x="28.5" y="-269.3" font-family="arial" font-size="14.00">0V</text>
<polyline fill="none" stroke="black" points="0,-261.5 57,-261.5 "/>
<text text-anchor="middle" x="28.5" y="-246.3" font-family="arial" font-size="14.00">100V</text>
<polyline fill="none" stroke="black" points="0,-238.5 57,-238.5 "/>
<text text-anchor="middle" x="28.5" y="-223.3" font-family="arial" font-size="14.00">120V</text>
<polyline fill="none" stroke="black" points="0,-215.5 57,-215.5 "/>
<text text-anchor="middle" x="28.5" y="-200.3" font-family="arial" font-size="14.00">220V</text>
<polyline fill="none" stroke="black" points="0,-192.5 57,-192.5 "/>
<text text-anchor="middle" x="28.5" y="-177.3" font-family="arial" font-size="14.00">240V</text>
<polyline fill="none" stroke="black" points="57,-169.5 57,-284.5 "/>
<text text-anchor="middle" x="74" y="-269.3" font-family="arial" font-size="14.00">1</text>
<polyline fill="none" stroke="black" points="57,-261.5 91,-261.5 "/>
<text text-anchor="middle" x="74" y="-246.3" font-family="arial" font-size="14.00">2</text>
<polyline fill="none" stroke="black" points="57,-238.5 91,-238.5 "/>
<text text-anchor="middle" x="74" y="-223.3" font-family="arial" font-size="14.00">3</text>
<polyline fill="none" stroke="black" points="57,-215.5 91,-215.5 "/>
<text text-anchor="middle" x="74" y="-200.3" font-family="arial" font-size="14.00">4</text>
<polyline fill="none" stroke="black" points="57,-192.5 91,-192.5 "/>
<text text-anchor="middle" x="74" y="-177.3" font-family="arial" font-size="14.00">5</text>
</g>
<!-- W1 -->
<g id="node5" class="node">
<title>W1</title>
<polygon fill="none" stroke="black" points="414,-360.5 235,-360.5 235,-155.5 414,-155.5 414,-360.5"/>
<polygon fill="none" stroke="black" points="235.5,-337 235.5,-360 414.5,-360 414.5,-337 235.5,-337"/>
<text text-anchor="start" x="314" y="-344.8" font-family="arial" font-size="14.00">W1</text>
<polygon fill="none" stroke="black" points="235.5,-314 235.5,-337 414.5,-337 414.5,-314 235.5,-314"/>
<text text-anchor="start" x="317.5" y="-321.8" font-family="arial" font-size="14.00">5x</text>
<text text-anchor="start" x="323" y="-302.8" font-family="arial" font-size="14.00"> </text>
<text text-anchor="start" x="237.5" y="-285.8" font-family="arial" font-size="14.00">Transformer:1</text>
<text text-anchor="start" x="327.5" y="-285.8" font-family="arial" font-size="14.00">WH</text>
<text text-anchor="start" x="355.5" y="-285.8" font-family="arial" font-size="14.00">PBK J2:1</text>
<polygon fill="#ffffff" stroke="transparent" points="235.5,-274 235.5,-280 414.5,-280 414.5,-274 235.5,-274"/>
<polyline fill="none" stroke="black" stroke-width="2" points="236.5,-275 413.5,-275 "/>
<polyline fill="none" stroke="black" stroke-width="2" points="413.5,-279 236.5,-279 "/>
<text text-anchor="start" x="237.5" y="-260.8" font-family="arial" font-size="14.00">Transformer:2</text>
<text text-anchor="start" x="330" y="-260.8" font-family="arial" font-size="14.00">BU</text>
<text text-anchor="start" x="355.5" y="-260.8" font-family="arial" font-size="14.00">PBK J2:3</text>
<polygon fill="#0066ff" stroke="transparent" stroke-width="2" points="235.5,-249 235.5,-255 414.5,-255 414.5,-249 235.5,-249"/>
<polyline fill="none" stroke="black" stroke-width="2" points="236.5,-250 413.5,-250 "/>
<polyline fill="none" stroke="black" stroke-width="2" points="413.5,-254 236.5,-254 "/>
<text text-anchor="start" x="237.5" y="-235.8" font-family="arial" font-size="14.00">Transformer:3</text>
<text text-anchor="start" x="328.5" y="-235.8" font-family="arial" font-size="14.00">GN</text>
<text text-anchor="start" x="355.5" y="-235.8" font-family="arial" font-size="14.00">PBK J2:4</text>
<polygon fill="#00ff00" stroke="transparent" stroke-width="2" points="235.5,-224 235.5,-230 414.5,-230 414.5,-224 235.5,-224"/>
<polyline fill="none" stroke="black" stroke-width="2" points="236.5,-225 413.5,-225 "/>
<polyline fill="none" stroke="black" stroke-width="2" points="413.5,-229 236.5,-229 "/>
<text text-anchor="start" x="237.5" y="-210.8" font-family="arial" font-size="14.00">Transformer:4</text>
<text text-anchor="start" x="330" y="-210.8" font-family="arial" font-size="14.00">YE</text>
<text text-anchor="start" x="355.5" y="-210.8" font-family="arial" font-size="14.00">PBK J2:6</text>
<polygon fill="#ffff00" stroke="transparent" stroke-width="2" points="235.5,-199 235.5,-205 414.5,-205 414.5,-199 235.5,-199"/>
<polyline fill="none" stroke="black" stroke-width="2" points="236.5,-200 413.5,-200 "/>
<polyline fill="none" stroke="black" stroke-width="2" points="413.5,-204 236.5,-204 "/>
<text text-anchor="start" x="237.5" y="-185.8" font-family="arial" font-size="14.00">Transformer:5</text>
<text text-anchor="start" x="328" y="-185.8" font-family="arial" font-size="14.00">OG</text>
<text text-anchor="start" x="355.5" y="-185.8" font-family="arial" font-size="14.00">PBK J2:7</text>
<polygon fill="#ff8000" stroke="transparent" stroke-width="2" points="235.5,-174 235.5,-180 414.5,-180 414.5,-174 235.5,-174"/>
<polyline fill="none" stroke="black" stroke-width="2" points="236.5,-175 413.5,-175 "/>
<polyline fill="none" stroke="black" stroke-width="2" points="413.5,-179 236.5,-179 "/>
<text text-anchor="start" x="278.5" y="-160.8" font-family="arial" font-size="14.00"> </text>
</g>
<!-- Transformer&#45;&#45;W1 -->
<g id="edge1" class="edge">
<title>Transformer:e&#45;&#45;W1:w</title>
<path fill="none" stroke="#000000" stroke-width="2" d="M91,-271C155.51,-271.06 171.46,-275.06 235,-275"/>
<path fill="none" stroke="#ffffff" stroke-width="2" d="M91,-273C155.02,-273 170.98,-277 235,-277"/>
<path fill="none" stroke="#000000" stroke-width="2" d="M91,-275C154.54,-274.94 170.49,-278.94 235,-279"/>
</g>
<!-- Transformer&#45;&#45;W1 -->
<g id="edge3" class="edge">
<title>Transformer:e&#45;&#45;W1:w</title>
<path fill="none" stroke="#000000" stroke-width="2" d="M91,-248C155.25,-248.02 171.24,-250.02 235,-250"/>
<path fill="none" stroke="#0066ff" stroke-width="2" d="M91,-250C155.01,-250 170.99,-252 235,-252"/>
<path fill="none" stroke="#000000" stroke-width="2" d="M91,-252C154.76,-251.98 170.75,-253.98 235,-254"/>
</g>
<!-- Transformer&#45;&#45;W1 -->
<g id="edge5" class="edge">
<title>Transformer:e&#45;&#45;W1:w</title>
<path fill="none" stroke="#000000" stroke-width="2" d="M91,-225C155,-225 171,-225 235,-225"/>
<path fill="none" stroke="#00ff00" stroke-width="2" d="M91,-227C155,-227 171,-227 235,-227"/>
<path fill="none" stroke="#000000" stroke-width="2" d="M91,-229C155,-229 171,-229 235,-229"/>
</g>
<!-- Transformer&#45;&#45;W1 -->
<g id="edge7" class="edge">
<title>Transformer:e&#45;&#45;W1:w</title>
<path fill="none" stroke="#000000" stroke-width="2" d="M91,-202C154.76,-202.02 170.75,-200.02 235,-200"/>
<path fill="none" stroke="#ffff00" stroke-width="2" d="M91,-204C155.01,-204 170.99,-202 235,-202"/>
<path fill="none" stroke="#000000" stroke-width="2" d="M91,-206C155.25,-205.98 171.24,-203.98 235,-204"/>
</g>
<!-- Transformer&#45;&#45;W1 -->
<g id="edge9" class="edge">
<title>Transformer:e&#45;&#45;W1:w</title>
<path fill="none" stroke="#000000" stroke-width="2" d="M91,-179C154.54,-179.06 170.49,-175.06 235,-175"/>
<path fill="none" stroke="#ff8000" stroke-width="2" d="M91,-181C155.02,-181 170.98,-177 235,-177"/>
<path fill="none" stroke="#000000" stroke-width="2" d="M91,-183C155.51,-182.94 171.46,-178.94 235,-179"/>
</g>
<!-- Switch -->
<g id="node4" class="node">
<title>Switch</title>
<polygon fill="white" stroke="black" points="17.5,-12 17.5,-104 73.5,-104 73.5,-12 17.5,-12"/>
<text text-anchor="middle" x="45.5" y="-88.8" font-family="arial" font-size="14.00">Switch</text>
<polyline fill="none" stroke="black" points="17.5,-81 73.5,-81 "/>
<text text-anchor="middle" x="45.5" y="-65.8" font-family="arial" font-size="14.00">2&#45;pin</text>
<polyline fill="none" stroke="black" points="17.5,-58 73.5,-58 "/>
<text text-anchor="middle" x="32" y="-42.8" font-family="arial" font-size="14.00">A</text>
<polyline fill="none" stroke="black" points="17.5,-35 46.5,-35 "/>
<text text-anchor="middle" x="32" y="-19.8" font-family="arial" font-size="14.00">B</text>
<polyline fill="none" stroke="black" points="46.5,-12 46.5,-58 "/>
<text text-anchor="middle" x="60" y="-42.8" font-family="arial" font-size="14.00">1</text>
<polyline fill="none" stroke="black" points="46.5,-35 73.5,-35 "/>
<text text-anchor="middle" x="60" y="-19.8" font-family="arial" font-size="14.00">2</text>
</g>
<!-- W2 -->
<g id="node6" class="node">
<title>W2</title>
<polygon fill="none" stroke="black" points="406.5,-130 242.5,-130 242.5,0 406.5,0 406.5,-130"/>
<polygon fill="none" stroke="black" points="242.5,-107 242.5,-130 406.5,-130 406.5,-107 242.5,-107"/>
<text text-anchor="start" x="313.5" y="-114.8" font-family="arial" font-size="14.00">W2</text>
<polygon fill="none" stroke="black" points="242.5,-84 242.5,-107 406.5,-107 406.5,-84 242.5,-84"/>
<text text-anchor="start" x="317" y="-91.8" font-family="arial" font-size="14.00">2x</text>
<text text-anchor="start" x="322.5" y="-72.8" font-family="arial" font-size="14.00"> </text>
<text text-anchor="start" x="244.5" y="-55.8" font-family="arial" font-size="14.00">Switch:1</text>
<text text-anchor="start" x="300.5" y="-55.8" font-family="arial" font-size="14.00">GY</text>
<text text-anchor="start" x="336.5" y="-55.8" font-family="arial" font-size="14.00">PBK J2:9</text>
<polygon fill="#999999" stroke="transparent" points="242.5,-44 242.5,-50 406.5,-50 406.5,-44 242.5,-44"/>
<polyline fill="none" stroke="black" stroke-width="2" points="243.5,-45 405.5,-45 "/>
<polyline fill="none" stroke="black" stroke-width="2" points="405.5,-49 243.5,-49 "/>
<text text-anchor="start" x="244.5" y="-30.8" font-family="arial" font-size="14.00">Switch:2</text>
<text text-anchor="start" x="301.5" y="-30.8" font-family="arial" font-size="14.00">BN</text>
<text text-anchor="start" x="325.5" y="-30.8" font-family="arial" font-size="14.00">PBK Mains:1</text>
<polygon fill="#666600" stroke="transparent" stroke-width="2" points="242.5,-19 242.5,-25 406.5,-25 406.5,-19 242.5,-19"/>
<polyline fill="none" stroke="black" stroke-width="2" points="243.5,-20 405.5,-20 "/>
<polyline fill="none" stroke="black" stroke-width="2" points="405.5,-24 243.5,-24 "/>
<text text-anchor="start" x="268.5" y="-5.8" font-family="arial" font-size="14.00"> </text>
</g>
<!-- Switch&#45;&#45;W2 -->
<g id="edge11" class="edge">
<title>Switch:e&#45;&#45;W2:w</title>
<path fill="none" stroke="#000000" stroke-width="2" d="M74.5,-44C148.83,-44 167.38,-45 241.5,-45"/>
<path fill="none" stroke="#999999" stroke-width="2" d="M74.5,-46C148.72,-46 167.28,-47 241.5,-47"/>
<path fill="none" stroke="#000000" stroke-width="2" d="M74.5,-48C148.62,-48 167.17,-49 241.5,-49"/>
</g>
<!-- Switch&#45;&#45;W2 -->
<g id="edge13" class="edge">
<title>Switch:e&#45;&#45;W2:w</title>
<path fill="none" stroke="#000000" stroke-width="2" d="M74.5,-21C148.62,-21 167.17,-20 241.5,-20"/>
<path fill="none" stroke="#666600" stroke-width="2" d="M74.5,-23C148.72,-23 167.28,-22 241.5,-22"/>
<path fill="none" stroke="#000000" stroke-width="2" d="M74.5,-25C148.83,-25 167.38,-24 241.5,-24"/>
</g>
<!-- W1&#45;&#45;PBK J2 -->
<g id="edge2" class="edge">
<title>W1:e&#45;&#45;PBK J2:w</title>
<path fill="none" stroke="#000000" stroke-width="2" d="M414,-275C482.93,-275.82 498.3,-296.82 564,-296"/>
<path fill="none" stroke="#ffffff" stroke-width="2" d="M414,-277C481.32,-277 496.68,-298 564,-298"/>
<path fill="none" stroke="#000000" stroke-width="2" d="M414,-279C479.7,-278.18 495.07,-299.18 564,-300"/>
</g>
<!-- W1&#45;&#45;PBK J2 -->
<g id="edge4" class="edge">
<title>W1:e&#45;&#45;PBK J2:w</title>
<path fill="none" stroke="#000000" stroke-width="2" d="M414,-250C480.67,-250 497.33,-250 564,-250"/>
<path fill="none" stroke="#0066ff" stroke-width="2" d="M414,-252C480.67,-252 497.33,-252 564,-252"/>
<path fill="none" stroke="#000000" stroke-width="2" d="M414,-254C480.67,-254 497.33,-254 564,-254"/>
</g>
<!-- W1&#45;&#45;PBK J2 -->
<g id="edge6" class="edge">
<title>W1:e&#45;&#45;PBK J2:w</title>
<path fill="none" stroke="#000000" stroke-width="2" d="M414,-225C480.91,-225.01 497.57,-227.01 564,-227"/>
<path fill="none" stroke="#00ff00" stroke-width="2" d="M414,-227C480.67,-227 497.33,-229 564,-229"/>
<path fill="none" stroke="#000000" stroke-width="2" d="M414,-229C480.43,-228.99 497.09,-230.99 564,-231"/>
</g>
<!-- W1&#45;&#45;PBK J2 -->
<g id="edge8" class="edge">
<title>W1:e&#45;&#45;PBK J2:w</title>
<path fill="none" stroke="#000000" stroke-width="2" d="M414,-200C479.65,-200.73 495.25,-181.73 564,-181"/>
<path fill="none" stroke="#ffff00" stroke-width="2" d="M414,-202C481.2,-202 496.8,-183 564,-183"/>
<path fill="none" stroke="#000000" stroke-width="2" d="M414,-204C482.75,-203.27 498.35,-184.27 564,-185"/>
</g>
<!-- W1&#45;&#45;PBK J2 -->
<g id="edge10" class="edge">
<title>W1:e&#45;&#45;PBK J2:w</title>
<path fill="none" stroke="#000000" stroke-width="2" d="M414,-175C479.63,-175.64 495.44,-158.64 564,-158"/>
<path fill="none" stroke="#ff8000" stroke-width="2" d="M414,-177C481.09,-177 496.91,-160 564,-160"/>
<path fill="none" stroke="#000000" stroke-width="2" d="M414,-179C482.56,-178.36 498.37,-161.36 564,-162"/>
</g>
<!-- W2&#45;&#45;PBK Mains -->
<g id="edge14" class="edge">
<title>W2:e&#45;&#45;PBK Mains:w</title>
<path fill="none" stroke="#000000" stroke-width="2" d="M407.5,-20C474.16,-20.01 490.87,-18.01 558,-18"/>
<path fill="none" stroke="#666600" stroke-width="2" d="M407.5,-22C474.39,-22 491.11,-20 558,-20"/>
<path fill="none" stroke="#000000" stroke-width="2" d="M407.5,-24C474.63,-23.99 491.34,-21.99 558,-22"/>
</g>
<!-- W2&#45;&#45;PBK J2 -->
<g id="edge12" class="edge">
<title>W2:e&#45;&#45;PBK J2:w</title>
<path fill="none" stroke="#000000" stroke-width="2" d="M407.5,-45C485.16,-46.85 490.33,-113.85 564,-112"/>
<path fill="none" stroke="#999999" stroke-width="2" d="M407.5,-47C483.16,-47 488.34,-114 564,-114"/>
<path fill="none" stroke="#000000" stroke-width="2" d="M407.5,-49C481.17,-47.15 486.34,-114.15 564,-116"/>
</g>
</g>
</svg>
